<?xml version="1.0" encoding="UTF-8" standalone="no"?>
<!-- Created with Inkscape (http://www.inkscape.org/) -->

<svg
   xmlns:dc="http://purl.org/dc/elements/1.1/"
   xmlns:cc="http://creativecommons.org/ns#"
   xmlns:rdf="http://www.w3.org/1999/02/22-rdf-syntax-ns#"
   xmlns:svg="http://www.w3.org/2000/svg"
   xmlns="http://www.w3.org/2000/svg"
   xmlns:sodipodi="http://sodipodi.sourceforge.net/DTD/sodipodi-0.dtd"
   xmlns:inkscape="http://www.inkscape.org/namespaces/inkscape"
   width="297mm"
   height="210mm"
   viewBox="0 0 297 210"
   version="1.1"
   id="svg5511"
   inkscape:version="0.92.4 (5da689c313, 2019-01-14)"
   sodipodi:docname="Anmhithe02.svg.2019_08_04_19_54_05.0.svg"
   inkscape:export-filename="/home/fachtna/00-2019/00-RID/JavaScript/anmhithe02-positioned.png"
   inkscape:export-xdpi="300.03"
   inkscape:export-ydpi="300.03">
  <defs
     id="defs5505" />
  <sodipodi:namedview
     id="base"
     pagecolor="#ffffff"
     bordercolor="#666666"
     borderopacity="1.0"
     inkscape:pageopacity="0.0"
     inkscape:pageshadow="2"
     inkscape:zoom="6.39"
     inkscape:cx="153.90684"
     inkscape:cy="667.02707"
     inkscape:document-units="mm"
     inkscape:current-layer="layer1"
     showgrid="false"
     inkscape:window-width="1920"
     inkscape:window-height="986"
     inkscape:window-x="-11"
     inkscape:window-y="-11"
     inkscape:window-maximized="1" />
  <metadata
     id="metadata5508">
    <rdf:RDF>
      <cc:Work
         rdf:about="">
        <dc:format>image/svg+xml</dc:format>
        <dc:type
           rdf:resource="http://purl.org/dc/dcmitype/StillImage" />
        <dc:title />
      </cc:Work>
    </rdf:RDF>
  </metadata>
  <g
     inkscape:label="Layer 1"
     inkscape:groupmode="layer"
     id="layer1"
     transform="translate(0,-87)">
    <path
       style="fill:#ff00ff;fill-rule:evenodd;stroke:#000000;stroke-width:1.11375678;stroke-linecap:butt;stroke-linejoin:miter;stroke-miterlimit:4;stroke-dasharray:none;stroke-opacity:1"
       d="m 30.000208,131.18715 c -0.122941,3.06989 -1.736462,3.70313 -0.249526,5.7497 1.125195,1.54869 5.47502,-0.32629 7.666729,0.13403 1.106656,-0.44961 5.938003,1.22601 6.853106,0.36633 3.088992,-2.90196 0.589415,-5.54847 0.589415,-5.54847 l -3.080272,0.41242 -2.752305,0.91296 v 0 l -2.117433,-1.04619 -2.107739,-0.24309 -2.854458,-0.31914 z"
       id="path4658-7-2"
       inkscape:connector-curvature="0"
       sodipodi:nodetypes="cscscccccccc" />
    <ellipse
       style="fill:#803300;fill-opacity:1;stroke:#000000;stroke-width:1.11375678;stroke-miterlimit:4;stroke-dasharray:none"
       id="path4520-7"
       cx="37.570831"
       cy="123.18159"
       rx="10.555621"
       ry="11.096505" />
    <ellipse
       style="fill:#ffffff;fill-opacity:1;stroke:#000000;stroke-width:0.10486642;stroke-miterlimit:4;stroke-dasharray:none"
       id="path4546-0"
       cx="38.011616"
       cy="119.57384"
       rx="1.8341872"
       ry="1.9306881" />
    <ellipse
       style="fill:#0000ff;fill-opacity:1;stroke:#000000;stroke-width:0.05568784;stroke-miterlimit:4.4000001;stroke-dasharray:none"
       id="path4571-3"
       cx="38.117489"
       cy="119.53513"
       rx="0.68816572"
       ry="0.62771308" />
    <path
       style="fill:#ffffff;fill-rule:evenodd;stroke:#000000;stroke-width:0.83531755;stroke-linecap:butt;stroke-linejoin:miter;stroke-miterlimit:4;stroke-dasharray:none;stroke-dashoffset:0;stroke-opacity:1"
       d="m 32.663811,128.58184 9.422576,0.20924"
       id="path4694-0"
       inkscape:connector-curvature="0" />
    <ellipse
       id="path5066"
       style="fill:#550000;stroke:none;stroke-width:0.55687839"
       cx="38.84005"
       cy="123.063"
       rx="0.84030408"
       ry="0.83036065" />
    <ellipse
       id="path5068"
       style="fill:#550000;stroke:none;stroke-width:0.55687839"
       cx="36.81876"
       cy="123.063"
       rx="0.84030408"
       ry="0.83036065" />
    <path
       style="fill:#d45500;fill-rule:evenodd;stroke:#000000;stroke-width:1.11375678;stroke-linecap:butt;stroke-linejoin:miter;stroke-miterlimit:4;stroke-dasharray:none;stroke-opacity:1"
       d="m 52.489785,131.18716 c -0.122943,3.06989 -1.736463,3.70313 -0.249527,5.7497 1.125196,1.54869 5.475018,-0.32629 7.666728,0.13403 1.106658,-0.44961 5.938003,1.22601 6.853106,0.36632 3.088997,-2.90195 0.589417,-5.54846 0.589417,-5.54846 l -3.080275,0.41241 -2.752304,0.91297 v 0 l -2.117431,-1.04619 -2.107741,-0.24309 -2.854457,-0.31914 z"
       id="path4658-7-2-2"
       inkscape:connector-curvature="0"
       sodipodi:nodetypes="cscscccccccc" />
    <ellipse
       style="fill:#ffb380;fill-opacity:1;stroke:#000000;stroke-width:1.11375678;stroke-miterlimit:4;stroke-dasharray:none"
       id="path4520-7-6"
       cx="60.060417"
       cy="123.1816"
       rx="10.555621"
       ry="11.096505" />
    <ellipse
       style="fill:#ffffff;fill-opacity:1;stroke:#000000;stroke-width:0.10486642;stroke-miterlimit:4;stroke-dasharray:none"
       id="path4546-0-1"
       cx="60.50119"
       cy="119.57385"
       rx="1.8341872"
       ry="1.9306881" />
    <ellipse
       style="fill:#0000ff;fill-opacity:1;stroke:#000000;stroke-width:0.05568784;stroke-miterlimit:4.4000001;stroke-dasharray:none"
       id="path4571-3-8"
       cx="60.981384"
       cy="119.09128"
       rx="0.68816572"
       ry="0.62771308" />
    <path
       style="fill:#ffffff;fill-rule:evenodd;stroke:#000000;stroke-width:0.83531755;stroke-linecap:butt;stroke-linejoin:miter;stroke-miterlimit:4;stroke-dasharray:none;stroke-dashoffset:0;stroke-opacity:1"
       d="m 55.153385,128.58185 5.205859,0.32922 4.366444,-0.19395"
       id="path4694-0-7"
       inkscape:connector-curvature="0"
       sodipodi:nodetypes="ccc" />
    <ellipse
       id="path5066-9"
       style="fill:#550000;stroke:none;stroke-width:0.55687839"
       cx="61.329628"
       cy="123.06303"
       rx="0.84030408"
       ry="0.83036065" />
    <ellipse
       id="path5068-2"
       style="fill:#550000;stroke:none;stroke-width:0.55687839"
       cx="59.308342"
       cy="123.06303"
       rx="0.84030408"
       ry="0.83036065" />
    <path
       style="fill:#d45500;fill-rule:evenodd;stroke:#000000;stroke-width:1.11375952;stroke-linecap:butt;stroke-linejoin:miter;stroke-miterlimit:4;stroke-dasharray:none;stroke-opacity:1"
       d="m 74.979356,130.89718 c -0.122937,3.06991 -2.934258,3.85111 -1.447323,5.89769 1.12519,1.5487 6.672821,-0.47424 8.864529,-0.014 1.106653,-0.44961 6.686635,1.66988 7.601735,0.81019 3.08899,-2.90197 -0.15921,-5.99236 -0.15921,-5.99236 l -3.08028,0.41242 -2.7523,0.91297 v 0 l -2.117438,-1.0462 -2.107735,-0.24309 -2.854461,-0.31914 z"
       id="path4658-7-2-2-0"
       inkscape:connector-curvature="0"
       sodipodi:nodetypes="cscscccccccc" />
    <ellipse
       style="fill:#ffb380;fill-opacity:1;stroke:#000000;stroke-width:1.11375952;stroke-miterlimit:4;stroke-dasharray:none"
       id="path4520-7-6-2"
       cx="82.550003"
       cy="123.18158"
       rx="10.55562"
       ry="11.096561" />
    <ellipse
       style="fill:#ffffff;fill-opacity:1;stroke:#000000;stroke-width:0.10486668;stroke-miterlimit:4;stroke-dasharray:none"
       id="path4546-0-1-3"
       cx="82.990784"
       cy="119.28382"
       rx="1.8341869"
       ry="1.9306979" />
    <ellipse
       style="fill:#008000;fill-opacity:1;stroke:#000000;stroke-width:0.05568798;stroke-miterlimit:4.4000001;stroke-dasharray:none"
       id="path4571-3-8-7"
       cx="82.797203"
       cy="118.72726"
       rx="0.68816566"
       ry="0.6277163" />
    <path
       style="fill:#ffffff;fill-rule:evenodd;stroke:#000000;stroke-width:0.83531964;stroke-linecap:butt;stroke-linejoin:miter;stroke-miterlimit:4;stroke-dasharray:none;stroke-dashoffset:0;stroke-opacity:1"
       d="m 77.642963,128.29187 5.205852,0.32922 4.366442,-0.19397"
       id="path4694-0-7-5"
       inkscape:connector-curvature="0"
       sodipodi:nodetypes="ccc" />
    <ellipse
       id="path5066-9-9"
       style="fill:#550000;stroke:none;stroke-width:0.55687976"
       cx="83.819214"
       cy="122.77298"
       rx="0.84030396"
       ry="0.83036488" />
    <ellipse
       id="path5068-2-2"
       style="fill:#550000;stroke:none;stroke-width:0.63575202"
       cx="81.665588"
       cy="122.66835"
       rx="0.97264355"
       ry="0.93498427" />
    <path
       style="fill:#d45500;fill-rule:evenodd;stroke:#000000;stroke-width:1.11375666;stroke-linecap:butt;stroke-linejoin:miter;stroke-miterlimit:4;stroke-dasharray:none;stroke-opacity:1"
       d="m 97.468945,131.36335 c -0.12293,3.06988 -2.18563,3.55517 -0.69869,5.60174 1.12519,1.54869 6.822535,-0.17833 9.014255,0.28196 1.10665,-0.4496 6.79427,1.13548 7.45201,0.0704 2.34035,-3.78967 -0.15922,-5.99233 -0.15922,-5.99233 l -3.82889,1.15218 -2.75232,0.91296 v 0 l -2.11743,-1.04618 -2.10773,-0.24308 -2.854465,-0.31915 z"
       id="path4658-7-2-2-0-2"
       inkscape:connector-curvature="0"
       sodipodi:nodetypes="cscscccccccc" />
    <ellipse
       style="fill:#ffb380;fill-opacity:1;stroke:#000000;stroke-width:1.11375666;stroke-miterlimit:4;stroke-dasharray:none"
       id="path4520-7-6-2-8"
       cx="105.03958"
       cy="123.18164"
       rx="10.555622"
       ry="11.096503" />
    <ellipse
       style="fill:#ffffff;fill-opacity:1;stroke:#000000;stroke-width:0.10486641;stroke-miterlimit:4;stroke-dasharray:none"
       id="path4546-0-1-3-9"
       cx="105.48037"
       cy="119.75004"
       rx="1.8341872"
       ry="1.9306877" />
    <ellipse
       style="fill:#008000;fill-opacity:1;stroke:#000000;stroke-width:0.05568784;stroke-miterlimit:4.4000001;stroke-dasharray:none"
       id="path4571-3-8-7-7"
       cx="105.58624"
       cy="119.71132"
       rx="0.68816572"
       ry="0.62771297" />
    <path
       style="fill:#ffffff;fill-rule:evenodd;stroke:#000000;stroke-width:0.83531749;stroke-linecap:butt;stroke-linejoin:miter;stroke-miterlimit:4;stroke-dasharray:none;stroke-dashoffset:0;stroke-opacity:1"
       d="m 100.13256,128.75804 5.20585,0.32922 4.36644,-0.19397"
       id="path4694-0-7-5-3"
       inkscape:connector-curvature="0"
       sodipodi:nodetypes="ccc" />
    <ellipse
       id="path5066-9-9-6"
       style="fill:#550000;stroke:none;stroke-width:0.62704062"
       cx="106.41468"
       cy="123.13457"
       rx="0.94617575"
       ry="0.93497932" />
    <ellipse
       id="path5068-2-2-1"
       style="fill:#550000;stroke:none;stroke-width:0.55687833"
       cx="104.28752"
       cy="123.23918"
       rx="0.84030408"
       ry="0.83036047" />
    <path
       style="fill:#d45500;fill-rule:evenodd;stroke:#000000;stroke-width:1.11375642;stroke-linecap:butt;stroke-linejoin:miter;stroke-miterlimit:4;stroke-dasharray:none;stroke-opacity:1"
       d="m 119.95856,131.40937 c -0.12294,3.06989 -2.18564,3.55518 -0.6987,5.60175 1.1252,1.54868 8.78118,-0.49219 10.97289,-0.0319 1.10666,-0.44961 4.83564,1.44933 5.49339,0.38427 2.34036,-3.78966 -0.15922,-5.99232 -0.15922,-5.99232 l -3.82889,1.15218 -2.75232,0.91296 v 0 l -2.11743,-1.0462 -2.10773,-0.24307 -2.85447,-0.31915 z"
       id="path4658-7-2-2-0-2-2"
       inkscape:connector-curvature="0"
       sodipodi:nodetypes="cscscccccccc" />
    <ellipse
       style="fill:#ffb380;fill-opacity:1;stroke:#000000;stroke-width:1.11375642;stroke-miterlimit:4;stroke-dasharray:none"
       id="path4520-7-6-2-8-9"
       cx="127.52917"
       cy="123.18165"
       rx="10.555622"
       ry="11.096498" />
    <ellipse
       style="fill:#ffffff;fill-opacity:1;stroke:#000000;stroke-width:0.10486638;stroke-miterlimit:4;stroke-dasharray:none"
       id="path4546-0-1-3-9-3"
       cx="127.96996"
       cy="119.79604"
       rx="1.8341872"
       ry="1.9306867" />
    <ellipse
       style="fill:#008000;fill-opacity:1;stroke:#000000;stroke-width:0.05568783;stroke-miterlimit:4.4000001;stroke-dasharray:none"
       id="path4571-3-8-7-7-1"
       cx="127.40206"
       cy="119.31349"
       rx="0.68816572"
       ry="0.62771267" />
    <path
       style="fill:#ffffff;fill-rule:evenodd;stroke:#000000;stroke-width:0.83531731;stroke-linecap:butt;stroke-linejoin:miter;stroke-miterlimit:4;stroke-dasharray:none;stroke-dashoffset:0;stroke-opacity:1"
       d="m 122.62217,128.80406 6.95273,0.32923 2.61956,-0.19396"
       id="path4694-0-7-5-3-9"
       inkscape:connector-curvature="0"
       sodipodi:nodetypes="ccc" />
    <ellipse
       id="path5066-9-9-6-4"
       style="fill:#550000;stroke:none;stroke-width:0.55687821"
       cx="128.79839"
       cy="123.28522"
       rx="0.84030408"
       ry="0.83036005" />
    <ellipse
       id="path5068-2-2-1-7"
       style="fill:#550000;stroke:none;stroke-width:0.55687821"
       cx="126.77712"
       cy="123.28522"
       rx="0.84030408"
       ry="0.83036005" />
    <path
       style="fill:#d45500;fill-rule:evenodd;stroke:#000000;stroke-width:1.11375642;stroke-linecap:butt;stroke-linejoin:miter;stroke-miterlimit:4;stroke-dasharray:none;stroke-opacity:1"
       d="m 142.44812,131.40937 c -0.12293,3.06989 -2.18563,3.55516 -0.69869,5.60174 1.1252,1.54868 8.78118,-0.49219 10.97288,-0.0319 1.10666,-0.4496 4.83565,1.44934 5.49339,0.38428 2.34037,-3.78966 -0.15922,-5.99232 -0.15922,-5.99232 l -3.82889,1.15218 -2.75231,0.91296 v 0 l -2.11744,-1.04619 -2.10773,-0.24307 -2.85447,-0.31916 z"
       id="path4658-7-2-2-0-2-2-8"
       inkscape:connector-curvature="0"
       sodipodi:nodetypes="cscscccccccc" />
    <ellipse
       style="fill:#ffb380;fill-opacity:1;stroke:#000000;stroke-width:1.11375642;stroke-miterlimit:4;stroke-dasharray:none"
       id="path4520-7-6-2-8-9-4"
       cx="150.01875"
       cy="123.18165"
       rx="10.555622"
       ry="11.096498" />
    <ellipse
       style="fill:#ffffff;fill-opacity:1;stroke:#000000;stroke-width:0.10486638;stroke-miterlimit:4;stroke-dasharray:none"
       id="path4546-0-1-3-9-3-5"
       cx="150.45953"
       cy="119.79606"
       rx="1.8341872"
       ry="1.9306867" />
    <ellipse
       style="fill:#008000;fill-opacity:1;stroke:#000000;stroke-width:0.05568783;stroke-miterlimit:4.4000001;stroke-dasharray:none"
       id="path4571-3-8-7-7-1-0"
       cx="149.59218"
       cy="119.97926"
       rx="0.68816572"
       ry="0.62771267" />
    <ellipse
       id="path5066-9-9-6-4-6"
       style="fill:#550000;stroke:none;stroke-width:0.68090868"
       cx="151.47513"
       cy="123.10027"
       rx="1.0274606"
       ry="1.0153017" />
    <ellipse
       id="path5068-2-2-1-7-1"
       style="fill:#550000;stroke:none;stroke-width:0.55687821"
       cx="149.26668"
       cy="123.28522"
       rx="0.84030408"
       ry="0.83036005" />
    <path
       style="fill:#ffffff;fill-rule:evenodd;stroke:#000000;stroke-width:0.83531731;stroke-linecap:butt;stroke-linejoin:miter;stroke-miterlimit:4;stroke-dasharray:none;stroke-dashoffset:0;stroke-opacity:1"
       d="m 145.11174,128.80406 3.51423,0.49181 5.90835,-0.28258"
       id="path4694-0-6"
       inkscape:connector-curvature="0"
       sodipodi:nodetypes="ccc" />
    <path
       style="fill:#d45500;fill-rule:evenodd;stroke:#000000;stroke-width:1.11375642;stroke-linecap:butt;stroke-linejoin:miter;stroke-miterlimit:4;stroke-dasharray:none;stroke-opacity:1"
       d="m 164.93771,131.40938 c -0.12293,3.06989 -2.18563,3.55518 -0.69869,5.60175 1.1252,1.54868 8.78118,-0.49219 10.97288,-0.0319 1.10666,-0.44962 4.83565,1.44933 5.49339,0.38427 2.34036,-3.78967 -0.15922,-5.99232 -0.15922,-5.99232 l -3.82889,1.15218 -2.75231,0.91296 v 0 l -2.11744,-1.04619 -2.10773,-0.24308 -2.85447,-0.31914 z"
       id="path4658-7-2-2-0-2-2-8-3"
       inkscape:connector-curvature="0"
       sodipodi:nodetypes="cscscccccccc" />
    <ellipse
       style="fill:#ffb380;fill-opacity:1;stroke:#000000;stroke-width:1.11375642;stroke-miterlimit:4;stroke-dasharray:none"
       id="path4520-7-6-2-8-9-4-2"
       cx="172.50833"
       cy="123.18165"
       rx="10.555622"
       ry="11.096498" />
    <ellipse
       style="fill:#ffffff;fill-opacity:1;stroke:#000000;stroke-width:0.10486638;stroke-miterlimit:4;stroke-dasharray:none"
       id="path4546-0-1-3-9-3-5-0"
       cx="172.94911"
       cy="119.79606"
       rx="1.8341872"
       ry="1.9306867" />
    <ellipse
       style="fill:#008000;fill-opacity:1;stroke:#000000;stroke-width:0.05568783;stroke-miterlimit:4.4000001;stroke-dasharray:none"
       id="path4571-3-8-7-7-1-0-6"
       cx="172.98012"
       cy="120.34915"
       rx="0.68816572"
       ry="0.62771267" />
    <ellipse
       id="path5066-9-9-6-4-6-1"
       style="fill:#550000;stroke:none;stroke-width:0.65563345"
       cx="173.88983"
       cy="123.10028"
       rx="0.95259792"
       ry="1.0153017" />
    <ellipse
       id="path5068-2-2-1-7-1-5"
       style="fill:#550000;stroke:none;stroke-width:0.55687821"
       cx="171.75626"
       cy="123.28524"
       rx="0.84030408"
       ry="0.83036005" />
    <path
       style="fill:#ffffff;fill-rule:evenodd;stroke:#000000;stroke-width:0.83531731;stroke-linecap:butt;stroke-linejoin:miter;stroke-miterlimit:4;stroke-dasharray:none;stroke-dashoffset:0;stroke-opacity:1"
       d="m 167.60133,128.80407 9.42257,0.20924"
       id="path4694-0-6-5"
       inkscape:connector-curvature="0" />
    <path
       style="fill:#d45500;fill-rule:evenodd;stroke:#000000;stroke-width:1.11375642;stroke-linecap:butt;stroke-linejoin:miter;stroke-miterlimit:4;stroke-dasharray:none;stroke-opacity:1"
       d="m 187.4273,131.40938 c -0.12293,3.06989 -2.18563,3.55517 -0.6987,5.60175 1.1252,1.54868 8.78118,-0.49219 10.97289,-0.0319 1.10666,-0.44962 4.83564,1.44933 5.49339,0.38427 2.34037,-3.78966 -0.15922,-5.99232 -0.15922,-5.99232 l -3.82889,1.15218 -2.75232,0.91296 v 0 l -2.11743,-1.04619 -2.10773,-0.24308 -2.85447,-0.31915 z"
       id="path4658-7-2-2-0-2-2-8-4"
       inkscape:connector-curvature="0"
       sodipodi:nodetypes="cscscccccccc" />
    <ellipse
       style="fill:#ffb380;fill-opacity:1;stroke:#000000;stroke-width:1.11375642;stroke-miterlimit:4;stroke-dasharray:none"
       id="path4520-7-6-2-8-9-4-7"
       cx="194.99791"
       cy="123.18165"
       rx="10.555622"
       ry="11.096498"
       inkscape:export-xdpi="300.03"
       inkscape:export-ydpi="300.03" />
    <ellipse
       style="fill:#ffffff;fill-opacity:1;stroke:#000000;stroke-width:0.10486638;stroke-miterlimit:4;stroke-dasharray:none"
       id="path4546-0-1-3-9-3-5-6"
       cx="195.43871"
       cy="119.79609"
       rx="1.8341872"
       ry="1.9306867" />
    <ellipse
       style="fill:#008000;fill-opacity:1;stroke:#000000;stroke-width:0.05568783;stroke-miterlimit:4.4000001;stroke-dasharray:none"
       id="path4571-3-8-7-7-1-0-5"
       cx="195.88145"
       cy="119.90533"
       rx="0.68816572"
       ry="0.62771267" />
    <ellipse
       id="path5066-9-9-6-4-6-6"
       style="fill:#550000;stroke:none;stroke-width:0.54447508"
       cx="196.24843"
       cy="123.30373"
       rx="0.82158846"
       ry="0.81186593" />
    <ellipse
       id="path5068-2-2-1-7-1-9"
       style="fill:#550000;stroke:none;stroke-width:0.55687821"
       cx="194.24585"
       cy="123.28524"
       rx="0.84030408"
       ry="0.83036005" />
    <path
       style="fill:#ffffff;fill-rule:evenodd;stroke:#000000;stroke-width:0.83531731;stroke-linecap:butt;stroke-linejoin:miter;stroke-miterlimit:4;stroke-dasharray:none;stroke-dashoffset:0;stroke-opacity:1"
       d="m 190.09091,128.80407 9.42258,0.20924"
       id="path4694-0-6-3"
       inkscape:connector-curvature="0" />
    <path
       style="fill:#0000ff;stroke-width:0.15649453"
       d="m 312.23393,122.04874 c -1.0872,-0.32948 -1.70835,-1.11202 -1.70732,-2.15096 8.1e-4,-0.82458 0.50068,-1.57049 1.29372,-1.93049 0.87371,-0.39662 1.48547,-0.38368 2.30309,0.0487 1.86038,0.98379 1.51441,3.49075 -0.5536,4.01148 -0.76031,0.19145 -0.77366,0.19166 -1.33589,0.0213 z"
       id="path3883"
       inkscape:connector-curvature="0"
       transform="matrix(0.26458333,0,0,0.26458333,0,87)" />
    <path
       style="fill:#0000ff;stroke-width:0.15649453"
       d="m 397.67749,125.44245 c -1.50557,-1.00579 -1.32122,-3.11334 0.33012,-3.77408 1.17579,-0.47045 2.25713,-0.22789 3.01867,0.67716 0.50942,0.6054 0.57513,1.65652 0.14919,2.38656 -0.60343,1.03427 -2.45136,1.40954 -3.49798,0.71036 z"
       id="path3885"
       inkscape:connector-curvature="0"
       transform="matrix(0.26458333,0,0,0.26458333,0,87)" />
    <path
       style="fill:#0000ff;stroke-width:0.15649453"
       d="m 480.77854,124.23966 c -1.68394,-0.51031 -2.23127,-2.34224 -1.06066,-3.55001 0.87635,-0.90416 2.0881,-1.03071 3.22977,-0.33729 1.43967,0.87441 1.25608,3.01408 -0.32001,3.72954 -0.69935,0.31747 -1.1853,0.35893 -1.8491,0.15776 z"
       id="path3887"
       inkscape:connector-curvature="0"
       transform="matrix(0.26458333,0,0,0.26458333,0,87)" />
    <path
       style="fill:#0000ff;stroke-width:0.15649453"
       d="m 564.32256,126.59637 c -0.89732,-0.40754 -1.3179,-0.99627 -1.3179,-1.84478 0,-0.37999 0.10393,-0.89187 0.23095,-1.1375 0.54644,-1.0567 2.28072,-1.49267 3.38118,-0.84997 1.61915,0.94564 1.61147,2.91305 -0.0147,3.77301 -0.81192,0.42935 -1.42927,0.4454 -2.2795,0.0592 z"
       id="path3889"
       inkscape:connector-curvature="0"
       transform="matrix(0.26458333,0,0,0.26458333,0,87)" />
    <path
       style="fill:#0000ff;stroke-width:0.15649453"
       d="m 652.68518,127.95954 c -0.38228,-0.19919 -0.83416,-0.55314 -1.00417,-0.78654 -0.41924,-0.57557 -0.41565,-1.71385 0.007,-2.28116 1.37121,-1.83967 4.50894,-1.04596 4.50894,1.14058 0,1.69307 -1.92937,2.75177 -3.51197,1.92712 z"
       id="path3891"
       inkscape:connector-curvature="0"
       transform="matrix(0.26458333,0,0,0.26458333,0,87)" />
    <path
       style="fill:#0000ff;stroke-width:0.15649453"
       d="m 739.38921,126.41327 c -0.63978,-0.26828 -1.24593,-0.95102 -1.42076,-1.6003 -0.14129,-0.52471 -0.11405,-0.70721 0.19811,-1.32695 0.48562,-0.96411 1.16386,-1.32591 2.34194,-1.24926 1.12192,0.073 1.91624,0.62747 2.18528,1.52545 0.25867,0.86337 -0.13511,1.88877 -0.90902,2.36707 -0.62973,0.3892 -1.81076,0.52921 -2.39555,0.28399 z"
       id="path3893"
       inkscape:connector-curvature="0"
       transform="matrix(0.26458333,0,0,0.26458333,0,87)" />
    <path
       style="fill:#cccccc;stroke-width:0.15649453"
       d="m 138.00463,176.31964 c -14.40622,-1.62619 -26.86464,-12.0444 -31.59601,-26.42181 -1.60828,-4.88715 -2.22125,-9.11755 -2.07479,-14.31924 0.13016,-4.62271 0.70229,-7.87817 2.14215,-12.18903 4.08838,-12.24032 13.91799,-21.78721 25.8166,-25.074064 5.20523,-1.437883 11.16462,-1.710821 16.27543,-0.745409 13.94334,2.633843 25.34893,13.268233 29.51044,27.515083 4.48662,15.35984 -0.39886,32.34125 -12.2178,42.46778 -5.77221,4.94566 -12.6915,7.95844 -20.18779,8.79012 -1.68373,0.18681 -5.92049,0.17386 -7.66823,-0.0234 z m 21.09845,-18.31485 c 0.0535,-0.87763 0.0779,-1.615 0.0543,-1.63859 -0.0236,-0.0236 -6.37712,-0.18283 -14.11896,-0.35388 -7.74183,-0.17104 -15.78381,-0.35708 -17.87106,-0.41343 l -3.79499,-0.10244 v 1.66079 1.66078 l 1.83881,0.0135 c 1.01135,0.007 8.45853,0.1734 16.5493,0.36882 8.09076,0.19542 15.28083,0.36539 15.97792,0.37772 l 1.26744,0.0224 0.0972,-1.5957 z M 140.5539,139.11494 c 1.13486,-0.58199 1.75568,-1.59681 1.75175,-2.86348 -0.006,-2.08718 -2.14298,-3.60261 -4.14674,-2.94132 -1.78838,0.59023 -2.7069,2.74428 -1.86816,4.38112 0.26614,0.51938 1.14773,1.35288 1.63563,1.54641 0.6655,0.26398 1.9945,0.20191 2.62752,-0.12273 z m 7.62935,0.004 c 2.32316,-1.05527 2.37458,-4.39341 0.0863,-5.6015 -2.21971,-1.17186 -5.04195,0.80343 -4.63018,3.24068 0.35008,2.07211 2.60281,3.24254 4.5439,2.36082 z m -2.85149,-8.70353 c 1.26597,-0.32974 2.06859,-0.77546 3.0247,-1.67971 1.67126,-1.58061 2.42204,-3.31367 2.42512,-5.59803 0.005,-3.35663 -2.05937,-6.30704 -5.04669,-7.21441 -1.62018,-0.49211 -3.44068,-0.38347 -4.88283,0.29139 -2.61943,1.22578 -4.33413,3.96471 -4.33413,6.92302 0,4.8356 4.36193,8.43732 8.81383,7.27774 z"
       id="path3895"
       inkscape:connector-curvature="0"
       transform="matrix(0.26458333,0,0,0.26458333,0,87)" />
    <path
       style="fill:#cccccc;stroke-width:0.15649453"
       d="m 223.92012,176.39493 c -1.49405,-0.12974 -4.04767,-0.57222 -5.72759,-0.99244 -4.98174,-1.24617 -9.98675,-3.76702 -14.14721,-7.12544 -1.69885,-1.37135 -4.67124,-4.37822 -6.01907,-6.08889 -11.74487,-14.90663 -11.63563,-36.42088 0.25987,-51.17921 0.69376,-0.86072 2.16775,-2.44607 3.27554,-3.523 3.19458,-3.10556 5.8753,-4.98634 9.84141,-6.90469 17.98656,-8.699838 39.43748,-1.055816 48.82069,17.39722 7.56558,14.87848 5.42277,33.01213 -5.38359,45.5589 -6.28064,7.29216 -15.02801,11.89248 -24.33533,12.79817 -1.58444,0.15418 -5.12529,0.18611 -6.58472,0.0594 z m 12.64682,-16.7048 c 4.45967,-0.20363 8.13356,-0.39531 8.16421,-0.42596 0.0306,-0.0306 0.0157,-0.78138 -0.0331,-1.66829 l -0.0889,-1.61258 -1.58082,0.0975 c -0.86945,0.0536 -4.50336,0.22885 -8.07534,0.3894 l -6.49453,0.2919 -9.91546,-0.62413 c -5.45351,-0.34327 -9.94929,-0.5903 -9.99064,-0.54895 -0.0413,0.0413 -0.11427,0.78478 -0.16206,1.65209 l -0.0869,1.57691 0.53137,0.0118 c 0.29225,0.006 4.54545,0.27889 9.45155,0.60536 4.9061,0.32648 9.20188,0.6007 9.54616,0.6094 0.34429,0.009 4.2748,-0.1508 8.73446,-0.35443 z M 225.8763,138.96354 c 2.59344,-1.56287 1.62188,-5.56112 -1.40452,-5.78003 -1.12541,-0.0814 -1.83554,0.1422 -2.49302,0.78502 -0.74435,0.72773 -1.0153,1.34223 -1.02141,2.31647 -0.016,2.54674 2.69134,4.02096 4.91895,2.67854 z m 7.61549,0.0443 c 2.15434,-1.23947 1.97012,-4.39245 -0.32559,-5.5728 -0.88663,-0.45586 -2.3228,-0.34737 -3.21466,0.24284 -0.72871,0.48223 -1.41068,1.70907 -1.4133,2.54248 -0.008,2.53391 2.72309,4.07075 4.95355,2.78748 z m -3.25113,-8.52478 c 2.6826,-0.61844 4.8222,-2.914 5.44392,-5.84076 0.72693,-3.42199 -1.01506,-6.9713 -4.13952,-8.4343 -0.87968,-0.4119 -1.28578,-0.50292 -2.47713,-0.55523 -2.24978,-0.0988 -3.82462,0.494 -5.34103,2.0104 -3.99458,3.99458 -2.37889,10.99355 2.93012,12.69295 0.96678,0.30946 2.54882,0.3655 3.58364,0.12694 z"
       id="path3897"
       inkscape:connector-curvature="0"
       transform="matrix(0.26458333,0,0,0.26458333,0,87)" />
    <path
       style="fill:#cccccc;stroke-width:0.15649453"
       d="m 307.85,176.26858 c -14.37391,-1.74412 -26.37551,-11.72021 -31.30761,-26.02383 -2.95847,-8.57989 -2.97532,-18.24787 -0.0469,-26.90763 4.11831,-12.17845 14.01478,-21.77152 25.78913,-24.998512 3.70527,-1.015502 5.50439,-1.24638 9.7125,-1.24638 4.19931,0 6.01073,0.231535 9.67654,1.236852 8.54036,2.34212 16.05583,7.90224 21.25852,15.72756 4.00445,6.02306 6.27011,12.92541 6.69204,20.38736 0.81219,14.36397 -5.78691,27.98222 -17.36106,35.8272 -7.09499,4.809 -16.05886,7.01108 -24.41315,5.99738 z m 12.36307,-17.60652 c 4.00235,-0.17266 7.79769,-0.35601 8.43409,-0.40744 l 1.1571,-0.0935 -0.10343,-1.57823 c -0.0569,-0.86803 -0.12068,-1.59549 -0.14176,-1.61657 -0.0211,-0.0211 -3.69945,0.12718 -8.17416,0.32946 l -8.13585,0.36779 -8.37245,-0.52784 c -4.60485,-0.2903 -9.04952,-0.57338 -9.87703,-0.62905 l -1.50458,-0.10122 -0.11293,1.59294 c -0.0621,0.87613 -0.0878,1.61808 -0.0571,1.6488 0.0307,0.0307 4.06845,0.30723 8.97275,0.61448 4.9043,0.30725 9.12817,0.58206 9.38639,0.61069 0.25821,0.0286 0.64554,0.0637 0.86072,0.0778 0.21518,0.0142 3.66588,-0.11549 7.66823,-0.28815 z m -10.01565,-20.605 c 2.22772,-0.91579 2.88756,-3.78336 1.28067,-5.56565 -0.76499,-0.84849 -1.59275,-1.2087 -2.78738,-1.21299 -2.19618,-0.008 -3.71613,1.42702 -3.72626,3.51769 -0.0127,2.62609 2.68616,4.30791 5.23297,3.26095 z m 8.16777,-0.0701 c 0.95815,-0.48553 1.69342,-1.73085 1.68986,-2.86207 -0.003,-0.8334 -0.6846,-2.06024 -1.4133,-2.54247 -0.8361,-0.55331 -2.32577,-0.69539 -3.15669,-0.3011 -1.82215,0.86467 -2.44989,3.1204 -1.3215,4.74867 0.937,1.3521 2.65136,1.74256 4.20163,0.95697 z m -2.7047,-8.72988 c 1.23197,-0.38343 2.33931,-1.10181 3.23638,-2.09956 3.69047,-4.10469 1.85784,-10.89988 -3.34778,-12.41319 -0.60417,-0.17564 -1.28075,-0.23105 -2.28351,-0.18702 -1.19136,0.0523 -1.59746,0.14333 -2.47713,0.55523 -4.72485,2.21236 -5.78156,8.73041 -2.01095,12.40401 1.87499,1.82676 4.48519,2.48681 6.88299,1.74053 z"
       id="path3899"
       inkscape:connector-curvature="0"
       transform="matrix(0.26458333,0,0,0.26458333,0,87)" />
    <path
       style="fill:#cccccc;stroke-width:0.15649453"
       d="m 393.21776,176.32868 c -15.521,-1.68111 -28.63535,-13.43516 -32.63261,-29.24775 -1.0225,-4.04486 -1.31685,-6.85373 -1.20242,-11.4744 0.11677,-4.71536 0.65923,-7.90834 2.05137,-12.07452 4.34563,-13.00495 14.95925,-22.84342 27.66973,-25.648901 3.15197,-0.695708 4.12562,-0.794137 7.8698,-0.795574 3.93877,-0.0015 5.51929,0.179527 8.85748,1.014568 6.53391,1.634442 12.58243,5.179957 17.51374,10.266197 8.57976,8.84929 12.60854,21.18028 11.01203,33.70481 -1.18605,9.30455 -5.31449,17.58938 -11.97075,24.02258 -5.51141,5.32671 -11.98931,8.61042 -19.6222,9.9467 -2.18528,0.38257 -7.25385,0.53458 -9.54617,0.28629 z m 14.00626,-15.99744 7.43349,-0.33951 -0.009,-1.59956 c -0.005,-0.87976 -0.0399,-1.62381 -0.0783,-1.65344 -0.0383,-0.0296 -3.69648,0.11256 -8.12919,0.31599 l -8.05947,0.36987 -8.99843,-0.55464 c -4.94914,-0.30505 -9.42767,-0.59455 -9.95229,-0.64334 l -0.95385,-0.0887 -0.0978,1.60556 c -0.0538,0.88306 -0.072,1.63134 -0.0405,1.66286 0.0315,0.0315 3.81463,0.29569 8.40691,0.58707 4.59228,0.29138 8.66651,0.55635 9.05383,0.58883 1.58253,0.13271 4.3586,0.0717 11.4241,-0.25098 z M 395.6054,139.8236 c 0.24656,-0.1275 0.6713,-0.45992 0.94387,-0.7387 1.40557,-1.43765 0.94327,-3.96595 -0.90584,-4.95407 -0.57944,-0.30964 -0.87696,-0.36595 -1.6791,-0.31779 -1.86297,0.11185 -3.0939,1.49486 -2.98257,3.35106 0.0834,1.39112 0.91405,2.44964 2.25924,2.87914 0.58283,0.18609 1.79813,0.0732 2.3644,-0.21964 z m 8.29713,-0.08 c 1.62472,-0.82887 2.37604,-2.97682 1.62108,-4.6345 -1.02637,-2.25359 -4.12823,-2.82335 -5.87284,-1.07873 -1.32474,1.32474 -1.38344,3.64193 -0.1258,4.96594 1.12106,1.18022 2.92524,1.48821 4.37756,0.74729 z m -3.14785,-8.75386 c 5.15259,-1.60844 6.7858,-8.47948 2.97363,-12.51029 -3.43911,-3.63635 -9.20279,-2.69689 -11.43052,1.86314 -2.02294,4.14085 -0.0863,9.09541 4.15117,10.61977 1.11284,0.40033 3.0711,0.41278 4.30572,0.0274 z"
       id="path3901"
       inkscape:connector-curvature="0"
       transform="matrix(0.26458333,0,0,0.26458333,0,87)" />
    <path
       style="fill:#cccccc;stroke-width:0.15649453"
       d="m 478.28757,176.32864 c -6.66335,-0.70062 -12.93103,-3.24132 -18.62285,-7.54908 -1.71062,-1.29466 -4.8545,-4.3895 -6.38348,-6.28392 -4.57183,-5.66451 -7.41546,-12.24474 -8.58883,-19.8748 -0.2732,-1.77649 -0.33693,-2.88658 -0.33693,-5.86854 0,-4.07831 0.26436,-6.39248 1.13518,-9.93741 2.41253,-9.82093 8.25035,-18.22336 16.52148,-23.77955 1.89554,-1.27334 5.99391,-3.311257 8.15029,-4.05274 3.6031,-1.238943 6.7517,-1.801974 10.78555,-1.928666 14.33799,-0.450317 27.55512,7.647296 34.31365,21.022606 3.21976,6.37201 4.58596,12.62048 4.3704,19.98852 -0.18788,6.42154 -1.5545,11.83742 -4.39699,17.42509 -4.76438,9.36568 -12.69052,16.20551 -22.41736,19.34498 -4.3694,1.41029 -9.90758,1.97954 -14.53011,1.49351 z m 16.63793,-15.81483 4.90084,-0.34821 -0.10826,-1.57363 c -0.0595,-0.8655 -0.13416,-1.6025 -0.16581,-1.63777 -0.0317,-0.0353 -2.36437,0.0942 -5.18382,0.28774 l -5.12626,0.35188 -12.83255,-0.62341 c -7.0579,-0.34288 -12.85651,-0.60099 -12.88579,-0.57358 -0.0776,0.0727 -0.23839,3.20169 -0.16514,3.21444 0.26042,0.0453 24.15981,1.20395 25.2575,1.22445 0.77465,0.0145 3.61383,-0.13039 6.30929,-0.32191 z m -14.79484,-20.32805 c 2.16931,-0.60242 2.9775,-3.39451 1.47718,-5.10328 -1.33471,-1.52015 -3.65754,-1.50821 -4.92159,0.0253 -2.03118,2.46418 0.32867,5.94323 3.44441,5.07798 z m 8.46311,-0.41046 c 2.64961,-1.86222 1.32789,-5.85087 -1.93374,-5.8356 -1.56701,0.007 -3.12815,1.60625 -3.12815,3.20383 0,1.13359 0.85058,2.40794 1.9531,2.92615 0.91026,0.42784 2.26352,0.2997 3.10879,-0.29438 z m -3.20564,-8.51676 c 3.65566,-0.82386 6.18413,-5.10565 5.28092,-8.94287 -1.3901,-5.90564 -8.19825,-7.90668 -12.1719,-3.57754 -4.07343,4.43787 -1.56259,11.92862 4.25052,12.68083 0.92867,0.12017 1.56768,0.0814 2.64046,-0.16042 z"
       id="path3903"
       inkscape:connector-curvature="0"
       transform="matrix(0.26458333,0,0,0.26458333,0,87)" />
    <path
       style="fill:#cccccc;stroke-width:0.15649453"
       d="m 563.89008,176.39493 c -15.09618,-1.31091 -28.21379,-12.3372 -32.84072,-27.60496 -1.17927,-3.89133 -1.71904,-7.70598 -1.71437,-12.11592 0.005,-4.38439 0.52409,-8.0163 1.70559,-11.92516 3.19557,-10.5722 10.5013,-19.32908 20.01695,-23.99294 4.93957,-2.421014 9.28884,-3.516031 14.71048,-3.703662 10.26769,-0.355344 19.67088,3.418292 27.15942,10.899482 5.6308,5.62527 9.37531,12.64095 10.94493,20.50632 0.67185,3.36665 0.83675,5.47659 0.73836,9.44781 -0.11659,4.70588 -0.66048,7.90625 -2.0496,12.0603 -4.87671,14.58348 -17.48945,24.94894 -32.08633,26.36935 -1.58444,0.15418 -5.12529,0.18611 -6.58471,0.0594 z m 8.76369,-15.39009 c 5.76682,-0.26471 10.72047,-0.51732 11.0081,-0.56136 l 0.52297,-0.0801 -0.0535,-1.54245 c -0.0294,-0.84835 -0.0887,-1.57293 -0.13173,-1.61018 -0.043,-0.0373 -5.04303,0.17223 -11.11111,0.4655 l -11.03286,0.53323 -6.57277,-0.92415 c -3.61503,-0.50828 -6.59443,-0.90722 -6.6209,-0.88652 -0.093,0.0727 -0.50584,3.0911 -0.43277,3.16417 0.0995,0.0995 12.52007,1.87301 13.31345,1.90102 0.34429,0.0122 5.34429,-0.19447 11.11111,-0.45918 z m -7.31109,-20.89621 c 2.25097,-0.94029 2.74178,-3.74812 0.9328,-5.33642 -2.07664,-1.82331 -5.30291,-0.39075 -5.30291,2.35465 0,2.2961 2.28281,3.85368 4.37011,2.98177 z m 8.37557,0.0171 c 1.69337,-0.60401 2.68696,-1.96718 2.68696,-3.68639 0,-3.5204 -4.32555,-5.20986 -6.74644,-2.635 -0.78929,0.83949 -1.05302,1.49943 -1.05302,2.635 0,1.13567 0.26387,1.79587 1.05302,2.63463 1.07434,1.14188 2.65714,1.55197 4.05948,1.05176 z m -3.17716,-8.88288 c 1.73557,-0.51342 3.63105,-2.08766 4.44303,-3.69002 1.53984,-3.03872 0.98399,-6.68616 -1.37815,-9.04336 -2.82583,-2.81991 -7.02576,-2.81513 -9.87188,0.0112 -3.04211,3.021 -3.00099,8.00527 0.0904,10.95393 1.8383,1.75344 4.44596,2.43993 6.71662,1.76821 z"
       id="path3905"
       inkscape:connector-curvature="0"
       transform="matrix(0.26458333,0,0,0.26458333,0,87)" />
    <path
       style="fill:#cccccc;stroke-width:0.15649453"
       d="m 647.84939,176.26858 c -14.37391,-1.74412 -26.37552,-11.72021 -31.30761,-26.02383 -2.95635,-8.57372 -2.97322,-18.2541 -0.0469,-26.90763 4.11831,-12.17845 14.01478,-21.77152 25.78912,-24.998512 3.70527,-1.015502 5.5044,-1.24638 9.7125,-1.24638 4.11636,0 5.79916,0.206686 9.42238,1.15728 8.52713,2.237182 16.2763,7.931142 21.51269,15.807132 4.00444,6.02306 6.2701,12.92541 6.69203,20.38736 1.29387,22.88253 -16.10612,42.20357 -37.86088,42.04093 -1.24857,-0.009 -3.00957,-0.10669 -3.91332,-0.21635 z m 21.28325,-17.5288 v -1.6432 l -1.44757,-0.005 c -0.79617,-0.003 -8.80673,-0.1725 -17.80125,-0.37733 -8.99453,-0.20482 -16.36151,-0.36106 -16.37108,-0.34719 -0.01,0.0139 -0.0623,0.74011 -0.11714,1.61387 l -0.0997,1.58864 1.76034,0.0918 c 0.96818,0.0505 7.2885,0.20124 14.04515,0.33506 6.75666,0.13382 12.63694,0.26251 13.0673,0.28596 0.43036,0.0235 2.17331,0.0557 3.87324,0.0716 l 3.09076,0.029 z m -18.69975,-18.67997 c 1.2546,-0.56995 2.06201,-1.93536 1.91511,-3.23863 -0.25614,-2.27248 -2.68786,-3.53385 -4.75444,-2.46619 -1.42828,0.73789 -2.03876,2.68976 -1.31128,4.19253 0.74441,1.53774 2.60352,2.21511 4.15061,1.51229 z m 8.57778,-0.23114 c 2.43094,-1.42463 2.44624,-5.34513 0.0264,-6.76326 -3.10626,-1.82039 -6.59783,1.63214 -5.09239,5.03544 0.43954,0.99365 0.8543,1.427 1.80769,1.8887 1.00768,0.48798 2.2563,0.42633 3.25831,-0.16088 z m -3.25831,-8.66435 c 2.87483,-0.88491 4.84968,-3.53723 5.04457,-6.77509 0.13372,-2.22159 -0.50589,-4.05843 -1.96777,-5.6511 -4.00221,-4.36027 -10.91696,-2.27316 -12.18085,3.6766 -1.17161,5.51533 3.87006,10.3607 9.10405,8.74959 z"
       id="path3907"
       inkscape:connector-curvature="0"
       transform="matrix(0.26458333,0,0,0.26458333,0,87)" />
    <path
       style="fill:#cccccc;stroke-width:0.15649453"
       d="m 732.84767,176.26858 c -15.5303,-1.88443 -28.29432,-13.47821 -32.31913,-29.35602 -1.59653,-6.29828 -1.59454,-14.03013 0.005,-20.34126 3.49021,-13.7688 13.83141,-24.67195 26.78444,-28.23991 3.65218,-1.00601 5.47285,-1.239162 9.67654,-1.239162 4.11636,0 5.79916,0.206686 9.42238,1.15728 8.52713,2.237182 16.2763,7.931142 21.51269,15.807132 1.57995,2.37639 3.40056,5.96607 4.32771,8.5329 3.83108,10.6064 3.1079,22.79603 -1.94262,32.74401 -6.70347,13.20379 -19.47824,21.25661 -33.55394,21.15138 -1.24857,-0.009 -3.00957,-0.10669 -3.91332,-0.21635 z m 21.28325,-17.5288 v -1.6432 l -1.44757,-0.005 c -0.79617,-0.003 -8.80673,-0.1725 -17.80125,-0.37733 -8.99453,-0.20482 -16.36151,-0.36106 -16.37108,-0.34719 -0.01,0.0139 -0.0623,0.74011 -0.11715,1.61387 l -0.0997,1.58864 1.76033,0.0918 c 0.96819,0.0505 7.28851,0.20124 14.04516,0.33506 6.75665,0.13382 12.63694,0.26251 13.0673,0.28596 0.43036,0.0235 2.17331,0.0557 3.87324,0.0716 l 3.09076,0.029 z m -18.69975,-18.67997 c 1.2546,-0.56995 2.06201,-1.93536 1.91511,-3.23863 -0.25614,-2.27248 -2.68786,-3.53385 -4.75444,-2.46619 -1.42828,0.73789 -2.03876,2.68976 -1.31128,4.19253 0.74441,1.53774 2.60352,2.21511 4.15061,1.51229 z m 7.83749,-0.12412 c 1.4336,-0.74067 2.04129,-2.70008 1.27851,-4.12236 -1.35368,-2.52407 -5.12748,-2.14026 -5.83664,0.5936 -0.69458,2.67768 2.06717,4.81574 4.55813,3.52876 z m -2.51802,-8.77137 c 2.87483,-0.88491 4.84968,-3.53723 5.04457,-6.77509 0.13372,-2.22159 -0.50589,-4.05843 -1.96777,-5.6511 -4.00461,-4.36289 -10.9162,-2.27673 -12.18085,3.6766 -1.17161,5.51533 3.87006,10.3607 9.10405,8.74959 z"
       id="path3909"
       inkscape:connector-curvature="0"
       transform="matrix(0.26458333,0,0,0.26458333,0,87)" />
    <path
       style="fill:#ff00ff;stroke-width:0.15649453"
       d="m 244.43888,189.08178 c -0.90375,-0.12126 -3.65023,-0.56964 -6.10328,-0.9964 -6.59801,-1.14785 -7.43981,-1.23059 -12.59781,-1.23821 -4.99883,-0.007 -6.55055,0.12147 -12.20658,1.01356 -4.83916,0.76325 -7.06221,1.00424 -9.26363,1.00424 -3.88254,0 -4.82848,-0.50997 -6.24104,-3.36463 -1.07151,-2.16544 -1.00794,-3.48178 0.37413,-7.74648 0.83236,-2.56843 1.50219,-5.07924 1.67576,-6.28146 l 0.10481,-0.72591 1.34536,1.07943 c 8.86462,7.11238 20.19824,10.22239 31.30973,8.59157 6.66652,-0.97844 12.69367,-3.51122 18.87955,-7.93373 0.25821,-0.1846 0.79691,-0.38042 1.19711,-0.43515 l 0.72762,-0.0995 0.57379,0.94455 c 2.00013,3.29257 2.28592,7.16987 0.77955,10.57604 -0.89075,2.01414 -3.51695,5.35894 -4.46792,5.69045 -0.67738,0.23613 -4.06867,0.19248 -6.08715,-0.0784 z"
       id="path3911"
       inkscape:connector-curvature="0"
       transform="matrix(0.26458333,0,0,0.26458333,0,87)" />
    <path
       style="fill:#ff00ff;stroke-width:0.15649453"
       d="m 333.8157,189.5608 c -1.93639,-0.29031 -4.80743,-0.86379 -8.68649,-1.73512 -8.20551,-1.84314 -9.77353,-2.0618 -14.86698,-2.07317 -4.32432,-0.01 -6.25851,0.16266 -12.98904,1.15716 -8.15421,1.20486 -8.40062,1.23074 -11.81534,1.24123 -4.54062,0.0139 -5.33647,-0.2697 -6.42662,-2.29041 -0.44958,-0.83333 -0.53194,-1.14375 -0.53155,-2.00334 5.8e-4,-1.29194 0.33017,-2.01744 2.35963,-5.19428 1.81114,-2.83506 2.99953,-5.10884 3.57802,-6.84588 0.23114,-0.69403 0.45179,-1.26188 0.49035,-1.26188 0.0386,0 0.50813,0.37158 1.04349,0.82572 2.50171,2.1222 6.11157,4.38272 9.29341,5.8196 11.16733,5.04303 23.6261,4.84986 34.55947,-0.53582 2.66399,-1.31225 5.54955,-3.13197 7.63038,-4.81191 l 1.2707,-1.02589 0.37215,0.45101 c 0.70997,0.86041 1.87511,2.64716 2.38611,3.65914 1.31848,2.61106 1.78605,5.17338 1.37117,7.51403 -0.41056,2.31628 -1.71387,4.69697 -3.55417,6.49223 l -0.80211,0.78247 -1.59846,0.0289 c -0.87916,0.0159 -2.26701,-0.0713 -3.08412,-0.19381 z"
       id="path3913"
       inkscape:connector-curvature="0"
       transform="matrix(0.26458333,0,0,0.26458333,0,87)" />
    <path
       style="fill:#ff00ff;stroke-width:0.15649453"
       d="m 420.12139,189.32491 c -1.03287,-0.0751 -4.69484,-0.50018 -8.13772,-0.94453 l -6.25978,-0.80792 -5.55556,-0.06 c -6.1259,-0.0662 -7.7502,0.0212 -15.02347,0.80829 -10.36412,1.12159 -14.42679,1.1009 -16.75194,-0.0853 -1.10285,-0.56263 -2.28869,-2.56274 -2.45083,-4.13372 -0.12028,-1.16544 0.0991,-1.91321 1.35737,-4.62654 1.37319,-2.96114 2.09907,-4.90062 2.58462,-6.90588 0.2114,-0.87307 0.4041,-1.60663 0.42821,-1.63014 0.0241,-0.0235 0.57201,0.3812 1.21755,0.89933 5.79083,4.64794 12.73163,7.62234 20.26604,8.68478 2.81166,0.39648 8.07968,0.35566 10.95461,-0.0849 7.46737,-1.14425 14.43807,-4.22272 19.99818,-8.83178 0.5613,-0.4653 1.15521,-0.74859 2.36675,-1.12893 l 1.6174,-0.50776 0.68216,1.03596 c 1.53064,2.32451 2.28815,5.22248 2.12741,8.13866 -0.15283,2.77246 -1.1951,6.08492 -2.7551,8.75601 -0.55838,0.95607 -0.73018,1.13199 -1.23173,1.26126 -0.92248,0.23775 -3.39016,0.31182 -5.43417,0.16313 z"
       id="path3915"
       inkscape:connector-curvature="0"
       transform="matrix(0.26458333,0,0,0.26458333,0,87)" />
    <path
       style="fill:#ff00ff;stroke-width:0.15649453"
       d="m 508.85321,189.38659 c -1.27665,-0.14694 -3.43861,-0.60146 -6.96401,-1.46408 -5.80267,-1.41982 -5.76178,-1.41526 -12.06471,-1.34645 -5.73612,0.0626 -6.24412,0.10248 -15.24359,1.19592 -7.30337,0.88736 -9.90118,1.11229 -13.84976,1.19916 -4.23573,0.0932 -6.19698,-0.0986 -7.51604,-0.73519 -1.10235,-0.53196 -2.24162,-2.72059 -2.25612,-4.33421 -0.0107,-1.18923 0.20133,-1.83362 1.56548,-4.75772 1.22464,-2.62504 2.02767,-4.8359 2.40916,-6.63273 0.1462,-0.68857 0.29354,-1.34023 0.32744,-1.44813 0.0376,-0.11979 0.5662,0.21135 1.3574,0.85039 5.46086,4.41063 12.36012,7.41017 19.60564,8.5238 2.91749,0.44841 8.11638,0.48215 11.09469,0.072 6.96612,-0.95932 13.40642,-3.62046 19.15599,-7.91529 1.79534,-1.34108 2.03613,-1.47084 3.57035,-1.92403 l 1.64517,-0.48597 0.37735,0.45939 c 0.67999,0.82782 1.77914,3.24819 2.12745,4.68474 0.65313,2.69372 0.41561,5.87115 -0.6707,8.9725 -0.47831,1.36554 -2.06911,4.60459 -2.38731,4.86084 -0.21706,0.1748 -1.56582,0.30771 -2.28388,0.22506 z"
       id="path3917"
       inkscape:connector-curvature="0"
       transform="matrix(0.26458333,0,0,0.26458333,0,87)" />
    <path
       style="fill:#ff00ff;stroke-width:0.15649453"
       d="m 593.90798,189.39108 c -1.63088,-0.21463 -2.95905,-0.49168 -6.65102,-1.38733 -2.28091,-0.55333 -4.7457,-1.10832 -5.47731,-1.2333 -1.85583,-0.31703 -9.55637,-0.32551 -12.98904,-0.0143 -2.06598,0.18731 -12.42877,1.35445 -15.25822,1.71851 -2.17914,0.28038 -6.52766,0.54312 -9.01706,0.54482 -4.40435,0.003 -6.35174,-0.42802 -7.2318,-1.60064 -1.13187,-1.50814 -1.58323,-3.27939 -1.21168,-4.75496 0.1028,-0.40823 0.72082,-1.90886 1.3734,-3.33473 1.64876,-3.60256 2.14307,-5.03669 2.7932,-8.10381 0.0677,-0.31947 0.19284,-0.25375 1.57747,0.82861 4.68421,3.66163 9.79063,6.17421 15.38593,7.57054 9.37416,2.33934 18.9072,1.31498 27.64268,-2.97031 2.39623,-1.1755 5.70319,-3.25254 7.57675,-4.75882 0.68446,-0.55028 1.2087,-0.79788 2.55995,-1.20911 l 1.69924,-0.51713 0.38059,0.46686 c 0.62538,0.76715 1.75649,3.19669 2.1117,4.53573 0.25842,0.9742 0.33317,1.72068 0.33693,3.36463 0.005,2.18217 -0.18305,3.38822 -0.83506,5.35607 -0.4046,1.22114 -2.03417,4.61956 -2.4349,5.07791 -0.30928,0.35376 -1.377,0.54643 -2.33175,0.42077 z"
       id="path3919"
       inkscape:connector-curvature="0"
       transform="matrix(0.26458333,0,0,0.26458333,0,87)" />
    <path
       style="fill:#ff00ff;stroke-width:0.15649453"
       d="m 678.80626,189.38942 c -1.33923,-0.16107 -3.4516,-0.60611 -6.57277,-1.38476 -5.68562,-1.41839 -5.99981,-1.45942 -11.26761,-1.47152 -5.11335,-0.0117 -6.86659,0.11402 -15.02347,1.07767 -11.06983,1.30778 -13.28648,1.48102 -17.47565,1.3658 -4.29611,-0.11816 -5.40009,-0.43011 -6.33598,-1.79038 -1.10532,-1.60653 -1.46195,-3.18254 -1.05326,-4.6546 0.0949,-0.34172 0.65385,-1.65932 1.24219,-2.92801 1.39126,-3.0001 2.10584,-4.92833 2.60638,-7.03309 0.36462,-1.53324 0.43188,-1.68623 0.6565,-1.4935 1.7639,1.51342 4.91464,3.67074 7.10416,4.86425 4.12527,2.24868 9.12816,3.87518 14.11105,4.58765 2.68584,0.38403 8.16888,0.33918 10.95994,-0.0897 7.14906,-1.09843 13.68148,-3.89538 19.26031,-8.24658 1.10569,-0.86238 1.47419,-1.04963 2.95148,-1.49978 l 1.68805,-0.51437 0.44392,0.5404 c 0.65873,0.80187 1.67713,2.94598 2.05689,4.33048 0.27305,0.99547 0.33344,1.64622 0.33085,3.56516 -0.004,2.69072 -0.31591,4.19124 -1.42434,6.84403 -0.5953,1.42471 -1.77966,3.61956 -2.03995,3.78043 -0.20205,0.12488 -1.62749,0.22149 -2.21869,0.15038 z"
       id="path3921"
       inkscape:connector-curvature="0"
       transform="matrix(0.26458333,0,0,0.26458333,0,87)" />
    <path
       style="fill:#ff00ff;stroke-width:0.15649453"
       d="m 763.86045,189.38659 c -1.29441,-0.14899 -3.4499,-0.60167 -6.964,-1.46252 -5.80257,-1.42147 -5.76101,-1.41683 -12.06471,-1.34801 -5.73612,0.0626 -6.24412,0.10248 -15.24359,1.19592 -7.30337,0.88736 -9.90119,1.11229 -13.84976,1.19916 -4.23865,0.0933 -6.20521,-0.0994 -7.51174,-0.73604 -1.11668,-0.5441 -2.26984,-2.7515 -2.2683,-4.342 10e-4,-1.23481 0.15999,-1.72047 1.51177,-4.62375 1.29871,-2.78929 2.27904,-5.54123 2.5747,-7.22754 0.10564,-0.6025 0.20782,-1.11751 0.22707,-1.14445 0.0193,-0.0269 0.62329,0.42663 1.3423,1.00795 2.05185,1.65891 4.84271,3.41321 7.56708,4.75656 3.85886,1.90275 7.7008,3.10686 12.05008,3.77663 2.79006,0.42966 8.27114,0.47488 10.95994,0.0904 7.24839,-1.0364 13.49579,-3.60615 19.29074,-7.93487 1.79534,-1.34108 2.03613,-1.47084 3.57034,-1.92403 l 1.64518,-0.48597 0.37735,0.45939 c 0.68076,0.82875 1.77934,3.24894 2.12651,4.68474 0.66659,2.75678 0.39739,6.02448 -0.7542,9.15493 -0.5358,1.45653 -1.93221,4.28364 -2.29212,4.64054 -0.20989,0.20813 -1.49316,0.35518 -2.29464,0.26293 z"
       id="path3923"
       inkscape:connector-curvature="0"
       transform="matrix(0.26458333,0,0,0.26458333,0,87)" />
  </g>
</svg>
