<?xml version="1.0" encoding="UTF-8" standalone="no"?>
<!-- Created with Inkscape (http://www.inkscape.org/) -->

<svg
   xmlns:dc="http://purl.org/dc/elements/1.1/"
   xmlns:cc="http://creativecommons.org/ns#"
   xmlns:rdf="http://www.w3.org/1999/02/22-rdf-syntax-ns#"
   xmlns:svg="http://www.w3.org/2000/svg"
   xmlns="http://www.w3.org/2000/svg"
   xmlns:sodipodi="http://sodipodi.sourceforge.net/DTD/sodipodi-0.dtd"
   xmlns:inkscape="http://www.inkscape.org/namespaces/inkscape"
   width="210mm"
   height="297mm"
   viewBox="0 0 210 297"
   version="1.1"
   id="svg3875"
   inkscape:version="0.92.4 (unknown)"
   sodipodi:docname="plant01.svg"
   inkscape:export-filename="/home/fachtna/00-2019/00-RID/JavaScript/plant01.png"
   inkscape:export-xdpi="44.34"
   inkscape:export-ydpi="44.34">
  <defs
     id="defs3869" />
  <sodipodi:namedview
     id="base"
     pagecolor="#ffffff"
     bordercolor="#666666"
     borderopacity="1.0"
     inkscape:pageopacity="0.0"
     inkscape:pageshadow="2"
     inkscape:zoom="0.5190873"
     inkscape:cx="266.10795"
     inkscape:cy="527.59855"
     inkscape:document-units="mm"
     inkscape:current-layer="layer1"
     showgrid="false"
     inkscape:window-width="1280"
     inkscape:window-height="970"
     inkscape:window-x="1680"
     inkscape:window-y="36"
     inkscape:window-maximized="1" />
  <metadata
     id="metadata3872">
    <rdf:RDF>
      <cc:Work
         rdf:about="">
        <dc:format>image/svg+xml</dc:format>
        <dc:type
           rdf:resource="http://purl.org/dc/dcmitype/StillImage" />
        <dc:title></dc:title>
      </cc:Work>
    </rdf:RDF>
  </metadata>
  <g
     inkscape:label="Layer 1"
     inkscape:groupmode="layer"
     id="layer1">
    <path
       style="fill:#22280b;fill-opacity:1;stroke:#0b2822;stroke-width:1;stroke-miterlimit:4;stroke-dasharray:none"
       id="path4432"
       d="m 51.237309,130.63165 c 0.128315,0.16009 0.276704,0.30597 0.384945,0.48026 0.12941,0.20837 0.385381,0.89517 0.485907,1.10937 0.278085,0.59252 0.589097,1.17761 0.905042,1.75069 0.152863,0.25079 0.301765,0.50405 0.458589,0.75238 0.158945,0.2517 0.335298,0.49235 0.488595,0.74753 0.489519,0.81483 0.862994,1.68386 1.22627,2.55944 0.533551,1.49058 -0.120216,-0.3603 0.359526,1.07345 0.111546,0.33336 0.200475,0.46825 0.238787,0.81118 0.02947,0.26382 -0.0021,0.37426 -0.04106,0.61902 -0.139567,0.25635 0.01471,0.55763 -0.03765,0.81806 -0.01722,0.0858 -0.06517,0.16236 -0.09776,0.24353 -0.06898,0.0749 -0.137962,0.14986 -0.206944,0.22478 0,0 -0.136742,-0.13045 -0.136742,-0.13045 v 0 c 0.05707,-0.0572 0.114144,-0.1144 0.171218,-0.1716 0.02716,-0.0522 0.06965,-0.0989 0.08149,-0.15655 0.05013,-0.24407 -0.09937,-0.60346 0.03986,-0.85819 0.09219,-0.54829 -0.01736,-0.82271 -0.191688,-1.34372 -0.481356,-1.43847 0.180615,0.43726 -0.353608,-1.05709 -0.358672,-0.86461 -0.726411,-1.72388 -1.209905,-2.52847 -0.154352,-0.25686 -0.331819,-0.49917 -0.491781,-0.75257 -0.15825,-0.25069 -0.308486,-0.50635 -0.462727,-0.75952 -0.319,-0.57923 -0.632899,-1.1705 -0.913971,-1.76921 -0.05628,-0.1199 -0.374793,-0.92745 -0.459031,-1.064 -0.104069,-0.16869 -0.247338,-0.30979 -0.371007,-0.46468 0,0 0.133636,-0.13364 0.133636,-0.13364 z"
       inkscape:connector-curvature="0" />
    <path
       style="fill:#22280b;fill-opacity:1;stroke:#0b2822;stroke-width:1;stroke-miterlimit:4;stroke-dasharray:none"
       id="path4436"
       d="m 63.67901,129.97678 c -1.01818,1.65172 -2.274604,3.11712 -3.752556,4.37355 -1.240684,1.05472 -1.083641,0.77326 -2.280769,1.6165 -0.29417,0.20721 -0.570871,0.43816 -0.856309,0.65725 -0.276862,0.19651 -0.875294,0.56726 -1.120267,0.89104 -0.243223,0.32149 -0.08064,1.02966 -0.02357,1.39356 0.04019,0.32734 0.09126,0.48042 -0.08105,0.76906 -0.03313,0.0555 -0.08709,0.0989 -0.11095,0.15899 -0.06116,0.15397 -0.03956,0.42712 -0.03923,0.56924 -0.167807,0.72448 -0.181515,1.44979 -0.135305,2.18612 0.0066,0.18033 -0.02647,0.24407 0.09295,0.38049 0.04615,0.0527 -0.03767,-0.0766 -0.04378,-0.20624 -0.02059,-0.4365 -0.01392,-0.87389 -0.02759,-1.31066 0.08971,-0.8291 0.03296,-0.44859 0.157109,-1.1434 0,0 0.186026,0.0333 0.186026,0.0333 v 0 c -0.120952,0.67336 -0.06559,0.30587 -0.154241,1.10418 0.0026,0.0832 0.045,1.19213 0.02381,1.35464 -0.053,0.40649 -0.333798,0.35106 -0.414644,0.0256 -0.01818,-0.0732 -0.0055,-0.15074 -0.0083,-0.22612 -0.04645,-0.74007 -0.03646,-1.47093 0.134934,-2.19862 0.0024,-0.27036 -0.02543,-0.42812 0.07335,-0.6769 0.04113,-0.1036 0.168142,-0.16337 0.195204,-0.27149 0.0186,-0.0743 -0.03106,-0.47998 -0.03507,-0.51907 -0.06098,-0.39158 -0.155618,-0.82384 -0.0666,-1.21933 0.136843,-0.60801 0.856806,-0.90263 1.28215,-1.24439 0.289404,-0.22189 0.570074,-0.45566 0.868209,-0.66567 1.18736,-0.8364 1.023876,-0.55112 2.254946,-1.59629 1.461576,-1.24088 2.704131,-2.68869 3.712471,-4.31991 0,0 0.169035,0.0845 0.169035,0.0845 z"
       inkscape:connector-curvature="0" />
    <path
       style="fill:#22280b;fill-opacity:1;stroke:#0b2822;stroke-width:1;stroke-miterlimit:4;stroke-dasharray:none"
       id="path4440"
       d="m 49.917419,136.19049 c 0.355148,1.07333 1.002051,2.04726 1.865371,2.78547 0.785656,0.67181 1.74984,1.08975 2.656369,1.56393 0.359238,0.23339 0.707027,0.47465 0.999916,0.7872 0,0 -0.138491,0.12859 -0.138491,0.12859 v 0 c -0.275188,-0.29945 -0.611876,-0.5224 -0.949021,-0.74833 -0.926386,-0.48457 -1.904637,-0.91299 -2.706171,-1.60162 -0.890437,-0.76502 -1.5532,-1.77305 -1.914391,-2.88417 0,0 0.186418,-0.0311 0.186418,-0.0311 z"
       inkscape:connector-curvature="0" />
    <path
       style="fill:#22280b;fill-opacity:1;stroke:#0b2822;stroke-width:1;stroke-miterlimit:4;stroke-dasharray:none"
       id="path4442"
       d="m 60.199251,139.10993 c -1.316804,0.26138 -2.294665,1.17309 -3.425256,1.80849 -0.183388,0.10307 -0.37461,0.19153 -0.561917,0.2873 -0.47563,0.26588 -0.280781,0.1263 -0.603578,0.39084 0,0 -0.119022,-0.1468 -0.119022,-0.1468 v 0 c 0.352419,-0.28302 0.145367,-0.13791 0.636653,-0.41236 0.182798,-0.0932 0.369478,-0.17919 0.548391,-0.27967 1.145728,-0.64341 2.138366,-1.56539 3.47281,-1.82952 0,0 0.05192,0.18172 0.05192,0.18172 z"
       inkscape:connector-curvature="0" />
    <path
       style="fill:#22280b;fill-rule:evenodd;stroke:#112b00;stroke-width:0.56482261;stroke-linecap:butt;stroke-linejoin:miter;stroke-miterlimit:4;stroke-dasharray:none;stroke-opacity:1"
       d="m 50.945906,143.35754 9.52248,-0.3877"
       id="path4446"
       inkscape:connector-curvature="0" />
    <path
       style="fill:#22280b;fill-opacity:1;stroke:#112b00;stroke-width:1;stroke-miterlimit:4;stroke-dasharray:none"
       id="path4452"
       d="m 54.962449,134.1497 c 0.116157,-0.71373 0.154517,-1.43569 0.140457,-2.15783 -0.0037,-0.1878 -0.03108,-0.37534 -0.02355,-0.56303 0.02151,-0.53544 0.132826,-0.90817 0.250184,-1.4417 0.213167,-1.17297 0.02447,-0.38238 0.387422,-1.45316 0.02413,-0.0712 0.251103,-0.84442 0.31551,-0.9673 0.03023,-0.0577 0.545052,-0.8203 0.623523,-0.93694 0.06336,-0.10944 0.131077,-0.21647 0.190066,-0.32832 0.104796,-0.19872 0.164711,-0.39406 0.304265,-0.57283 0.250868,-0.32138 0.59961,-0.57815 0.903981,-0.84466 0.117012,-0.1979 0.387601,-0.27922 0.506756,-0.47872 0.442143,-0.74024 -0.517919,0.41482 0.20732,-0.50591 0.266168,-0.33791 0.38898,-0.37608 0.751914,-0.61882 0.422002,-0.2784 0.76817,-0.61418 1.251762,-0.77234 0,0 0.05763,0.17999 0.05763,0.17999 v 0 c -0.468675,0.1464 -0.791553,0.49236 -1.204954,0.74985 -0.341403,0.22428 -0.440582,0.24983 -0.693598,0.55738 -0.365027,0.44369 0.08606,0.004 -0.237561,0.5446 -0.121222,0.2025 -0.395113,0.28571 -0.514773,0.48615 -0.287825,0.25202 -0.627581,0.49742 -0.866677,0.80013 -0.216226,0.27375 -0.281615,0.63521 -0.499333,0.90899 -0.200522,0.29805 -0.434509,0.57607 -0.601945,0.89389 -0.06275,0.11911 -0.296897,0.91252 -0.316421,0.96983 -0.35797,1.05077 -0.164041,0.23982 -0.380341,1.4289 -0.10849,0.49041 -0.226089,0.89561 -0.245909,1.39312 -0.0076,0.19032 0.02008,0.38047 0.02371,0.5709 0.01392,0.73255 -0.02524,1.46491 -0.143026,2.1889 0,0 -0.186418,-0.0311 -0.186418,-0.0311 z"
       inkscape:connector-curvature="0" />
    <path
       style="fill:#22280b;fill-opacity:1;stroke:#112b00;stroke-width:1;stroke-miterlimit:4;stroke-dasharray:none"
       id="path4456"
       d="m 50.332913,126.06006 c 0.19237,0.19192 0.39551,0.37359 0.57709,0.57574 0.2338,0.26029 0.44356,0.54121 0.66759,0.80995 0.66544,0.79825 0.82517,0.91976 1.37453,1.7775 0.67264,1.16091 0.33079,0.61474 1.01712,1.64375 0.73183,1.03315 1.0467,2.02859 0.9932,3.28267 0.13423,1.22124 0.19659,2.44578 0.46405,3.64791 0.20688,0.83112 0.0502,1.67535 0.0312,2.5147 0.0419,0.28944 -0.1245,0.48631 -0.28407,0.70543 0,0 -0.15146,-0.11304 -0.15146,-0.11304 v 0 c 0.14682,-0.19106 0.28601,-0.34131 0.24659,-0.59672 0.0191,-0.82419 0.17376,-1.65318 -0.0268,-2.46945 -0.2694,-1.21843 -0.33678,-2.45911 -0.46834,-3.69717 0.0555,-1.21277 -0.25416,-2.1712 -0.96165,-3.16949 -0.68945,-1.03465 -0.34897,-0.48945 -1.0145,-1.63993 -0.54525,-0.8526 -0.70173,-0.96886 -1.36579,-1.76602 -0.22005,-0.26415 -0.42607,-0.54025 -0.65533,-0.79645 -0.17526,-0.19585 -0.37123,-0.37213 -0.55685,-0.55819 0,0 0.11339,-0.15119 0.11339,-0.15119 z"
       inkscape:connector-curvature="0" />
  </g>
</svg>
