<?xml version="1.0" encoding="UTF-8" standalone="no"?>
<!-- Created with Inkscape (http://www.inkscape.org/) -->

<svg
   xmlns:osb="http://www.openswatchbook.org/uri/2009/osb"
   xmlns:dc="http://purl.org/dc/elements/1.1/"
   xmlns:cc="http://creativecommons.org/ns#"
   xmlns:rdf="http://www.w3.org/1999/02/22-rdf-syntax-ns#"
   xmlns:svg="http://www.w3.org/2000/svg"
   xmlns="http://www.w3.org/2000/svg"
   xmlns:sodipodi="http://sodipodi.sourceforge.net/DTD/sodipodi-0.dtd"
   xmlns:inkscape="http://www.inkscape.org/namespaces/inkscape"
   width="210mm"
   height="297mm"
   viewBox="0 0 210 297"
   version="1.1"
   id="svg8"
   inkscape:version="0.92.4 (unknown)"
   sodipodi:docname="Anmhithe01.svg">
  <defs
     id="defs2">
    <linearGradient
       id="linearGradient2982"
       osb:paint="solid">
      <stop
         style="stop-color:#ffffff;stop-opacity:1;"
         offset="0"
         id="stop2980" />
    </linearGradient>
    <inkscape:perspective
       sodipodi:type="inkscape:persp3d"
       inkscape:vp_x="0 : 148.5 : 1"
       inkscape:vp_y="0 : 1000 : 0"
       inkscape:vp_z="210 : 148.5 : 1"
       inkscape:persp3d-origin="105 : 99 : 1"
       id="perspective4620" />
  </defs>
  <sodipodi:namedview
     id="base"
     pagecolor="#ffffff"
     bordercolor="#666666"
     borderopacity="1.0"
     inkscape:pageopacity="0.0"
     inkscape:pageshadow="2"
     inkscape:zoom="0.7"
     inkscape:cx="287.60078"
     inkscape:cy="344.99763"
     inkscape:document-units="mm"
     inkscape:current-layer="layer1"
     showgrid="false"
     inkscape:window-width="1280"
     inkscape:window-height="970"
     inkscape:window-x="1680"
     inkscape:window-y="36"
     inkscape:window-maximized="1" />
  <metadata
     id="metadata5">
    <rdf:RDF>
      <cc:Work
         rdf:about="">
        <dc:format>image/svg+xml</dc:format>
        <dc:type
           rdf:resource="http://purl.org/dc/dcmitype/StillImage" />
        <dc:title />
      </cc:Work>
    </rdf:RDF>
  </metadata>
  <g
     inkscape:label="Layer 1"
     inkscape:groupmode="layer"
     id="layer1">
    <path
       style="fill:#d45500;fill-rule:evenodd;stroke:#000000;stroke-width:2;stroke-linecap:butt;stroke-linejoin:miter;stroke-miterlimit:4;stroke-dasharray:none;stroke-opacity:1"
       d="m 39.099598,105.61482 c -4.112083,8.84005 -8.056651,18.4562 1.288993,18.5101 9.345641,0.0539 8.579059,-5.43406 8.579059,-5.43406 l -1.55736,-0.70115 -1.674582,-0.92222 v 0 l -3.213724,-3.0479 -2.442593,-3.69383 z"
       id="path4658"
       inkscape:connector-curvature="0"
       sodipodi:nodetypes="ccccccccc" />
    <path
       style="fill:#d45500;fill-rule:evenodd;stroke:#000000;stroke-width:2;stroke-linecap:butt;stroke-linejoin:miter;stroke-miterlimit:4;stroke-dasharray:none;stroke-opacity:1"
       d="m 75.279457,106.20683 c 4.112083,8.84005 8.056651,18.4562 -1.288994,18.5101 -9.34564,0.0539 -8.579058,-5.43406 -8.579058,-5.43406 l 1.55736,-0.70115 1.674582,-0.92222 v 0 l 3.213724,-3.0479 2.442592,-3.69383 z"
       id="path4658-7"
       inkscape:connector-curvature="0"
       sodipodi:nodetypes="ccccccccc" />
    <ellipse
       style="fill:#ffb380;stroke:#000000;stroke-width:2;fill-opacity:1;stroke-miterlimit:4;stroke-dasharray:none"
       id="path4520"
       cx="57.329311"
       cy="101.09144"
       rx="18.842501"
       ry="20.045216" />
    <ellipse
       style="fill:#ffffff;fill-opacity:1;stroke:#000000;stroke-width:0.18831116;stroke-miterlimit:4;stroke-dasharray:none"
       id="path4546"
       cx="50.365326"
       cy="88.427086"
       rx="3.2741485"
       ry="3.4876797" />
    <ellipse
       style="fill:#ffffff;fill-opacity:1;stroke:#000000;stroke-width:0.18831116;stroke-miterlimit:4;stroke-dasharray:none"
       id="path4546-3"
       cx="62.933033"
       cy="88.357147"
       rx="3.2741487"
       ry="3.4876797" />
    <ellipse
       style="fill:#008000;fill-opacity:1;stroke:#000000;stroke-width:0.1;stroke-miterlimit:4.4000001;stroke-dasharray:none"
       id="path4571"
       cx="50.554314"
       cy="88.35714"
       rx="1.2284226"
       ry="1.1339285" />
    <ellipse
       style="fill:#008000;fill-opacity:1;stroke:#000000;stroke-width:0.1;stroke-miterlimit:4.4000001;stroke-dasharray:none"
       id="path4571-6"
       cx="63.122025"
       cy="88.168159"
       rx="1.2284226"
       ry="1.1339285" />
    <path
       style="fill:#ffffff;fill-rule:evenodd;stroke:#000000;stroke-width:1.5;stroke-linecap:butt;stroke-linejoin:miter;stroke-opacity:1;stroke-miterlimit:4;stroke-dasharray:none;stroke-dashoffset:0"
       d="m 48.56994,110.84673 16.819941,0.37797"
       id="path4694"
       inkscape:connector-curvature="0" />
    <path
       style="fill:#d45500;fill-rule:evenodd;stroke:#000000;stroke-width:2;stroke-linecap:butt;stroke-linejoin:miter;stroke-miterlimit:4;stroke-dasharray:none;stroke-opacity:1"
       d="m 9.6108783,172.82931 c -0.219456,5.54558 -3.099701,6.6895 -0.445419,10.38652 2.0085487,2.79761 9.7732817,-0.58943 13.6856327,0.2421 1.975456,-0.81219 10.59974,2.21473 12.233259,0.66175 5.514062,-5.24221 1.052148,-10.02299 1.052148,-10.02299 l -5.498496,0.745 -4.913052,1.64922 v 0 l -3.779762,-1.88988 -3.762458,-0.43912 -5.095402,-0.57651 z"
       id="path4658-7-2"
       inkscape:connector-curvature="0"
       sodipodi:nodetypes="cscscccccccc" />
    <ellipse
       style="fill:#ffb380;fill-opacity:1;stroke:#000000;stroke-width:2;stroke-miterlimit:4;stroke-dasharray:none"
       id="path4520-7"
       cx="23.124968"
       cy="158.36769"
       rx="18.842501"
       ry="20.045216" />
    <ellipse
       style="fill:#ffffff;fill-opacity:1;stroke:#000000;stroke-width:0.18831116;stroke-miterlimit:4;stroke-dasharray:none"
       id="path4546-0"
       cx="23.911795"
       cy="151.85052"
       rx="3.2741487"
       ry="3.4876797" />
    <ellipse
       style="fill:#008000;fill-opacity:1;stroke:#000000;stroke-width:0.1;stroke-miterlimit:4.4000001;stroke-dasharray:none"
       id="path4571-3"
       cx="24.100782"
       cy="151.78058"
       rx="1.2284226"
       ry="1.1339285" />
    <path
       style="fill:#ffffff;fill-rule:evenodd;stroke:#000000;stroke-width:1.5;stroke-linecap:butt;stroke-linejoin:miter;stroke-miterlimit:4;stroke-dasharray:none;stroke-dashoffset:0;stroke-opacity:1"
       d="m 14.365592,168.12297 16.819939,0.37797"
       id="path4694-0"
       inkscape:connector-curvature="0" />
    <circle
       id="path5066"
       style="fill:#550000;stroke:none"
       cx="25.390608"
       cy="158.15349"
       r="1.5" />
    <circle
       id="path5068"
       style="fill:#550000;stroke:none"
       cx="21.782465"
       cy="158.15349"
       r="1.5" />
    <path
       style="fill:#d45500;fill-rule:evenodd;stroke:#000000;stroke-width:2;stroke-linecap:butt;stroke-linejoin:miter;stroke-miterlimit:4;stroke-dasharray:none;stroke-opacity:1"
       d="m 56.243258,172.06967 c -0.219456,5.54558 -3.099702,6.6895 -0.44542,10.38652 2.00855,2.79761 9.773283,-0.58943 13.685634,0.2421 1.975456,-0.81219 10.59974,2.21473 12.233259,0.66175 5.514062,-5.24221 1.052147,-10.02299 1.052147,-10.02299 l -5.498494,0.745 -4.913053,1.64922 v 0 l -3.779762,-1.88988 -3.762458,-0.43912 -5.095403,-0.57651 z"
       id="path4658-7-2-2"
       inkscape:connector-curvature="0"
       sodipodi:nodetypes="cscscccccccc" />
    <ellipse
       style="fill:#ffb380;fill-opacity:1;stroke:#000000;stroke-width:2;stroke-miterlimit:4;stroke-dasharray:none"
       id="path4520-7-6"
       cx="69.757347"
       cy="157.60805"
       rx="18.842501"
       ry="20.045216" />
    <ellipse
       style="fill:#ffffff;fill-opacity:1;stroke:#000000;stroke-width:0.18831116;stroke-miterlimit:4;stroke-dasharray:none"
       id="path4546-0-1"
       cx="70.544174"
       cy="151.09088"
       rx="3.2741489"
       ry="3.4876797" />
    <ellipse
       style="fill:#008000;fill-opacity:1;stroke:#000000;stroke-width:0.1;stroke-miterlimit:4.4000001;stroke-dasharray:none"
       id="path4571-3-8"
       cx="71.401337"
       cy="150.21913"
       rx="1.2284226"
       ry="1.1339285" />
    <path
       style="fill:#ffffff;fill-rule:evenodd;stroke:#000000;stroke-width:1.5;stroke-linecap:butt;stroke-linejoin:miter;stroke-miterlimit:4;stroke-dasharray:none;stroke-dashoffset:0;stroke-opacity:1"
       d="m 60.997972,167.36333 9.292807,0.59471 7.794401,-0.35037"
       id="path4694-0-7"
       inkscape:connector-curvature="0"
       sodipodi:nodetypes="ccc" />
    <circle
       id="path5066-9"
       style="fill:#550000;stroke:none;stroke-width:1"
       cx="72.022987"
       cy="157.39384"
       r="1.5" />
    <circle
       id="path5068-2"
       style="fill:#550000;stroke:none;stroke-width:1"
       cx="68.414848"
       cy="157.39384"
       r="1.5" />
    <path
       style="fill:#d45500;fill-rule:evenodd;stroke:#000000;stroke-width:2;stroke-linecap:butt;stroke-linejoin:miter;stroke-miterlimit:4;stroke-dasharray:none;stroke-opacity:1"
       d="m 102.21361,173.94055 c -0.21945,5.54558 -5.237855,6.95677 -2.583576,10.65379 2.008546,2.79761 11.911446,-0.8567 15.823796,-0.0252 1.97545,-0.81219 11.93609,3.01654 13.56961,1.46356 5.51406,-5.24221 -0.28421,-10.8248 -0.28421,-10.8248 l -5.49849,0.745 -4.91305,1.64922 v 0 l -3.77977,-1.88988 -3.76245,-0.43912 -5.09541,-0.57651 z"
       id="path4658-7-2-2-0"
       inkscape:connector-curvature="0"
       sodipodi:nodetypes="cscscccccccc" />
    <ellipse
       style="fill:#ffb380;fill-opacity:1;stroke:#000000;stroke-width:2;stroke-miterlimit:4;stroke-dasharray:none"
       id="path4520-7-6-2"
       cx="115.7277"
       cy="159.47891"
       rx="18.842501"
       ry="20.045216" />
    <ellipse
       style="fill:#ffffff;fill-opacity:1;stroke:#000000;stroke-width:0.18831116;stroke-miterlimit:4;stroke-dasharray:none"
       id="path4546-0-1-3"
       cx="116.51453"
       cy="152.96176"
       rx="3.2741489"
       ry="3.4876797" />
    <ellipse
       style="fill:#008000;fill-opacity:1;stroke:#000000;stroke-width:0.1;stroke-miterlimit:4.4000001;stroke-dasharray:none"
       id="path4571-3-8-7"
       cx="116.16897"
       cy="151.95638"
       rx="1.2284226"
       ry="1.1339285" />
    <path
       style="fill:#ffffff;fill-rule:evenodd;stroke:#000000;stroke-width:1.5;stroke-linecap:butt;stroke-linejoin:miter;stroke-miterlimit:4;stroke-dasharray:none;stroke-dashoffset:0;stroke-opacity:1"
       d="m 106.96833,169.23421 9.2928,0.59471 7.79441,-0.35037"
       id="path4694-0-7-5"
       inkscape:connector-curvature="0"
       sodipodi:nodetypes="ccc" />
    <circle
       id="path5066-9-9"
       style="fill:#550000;stroke:none;stroke-width:1"
       cx="117.99334"
       cy="159.26471"
       r="1.5" />
    <ellipse
       id="path5068-2-2"
       style="fill:#550000;stroke:none;stroke-width:1.14163244"
       cx="114.14896"
       cy="159.07571"
       rx="1.7362351"
       ry="1.6889881" />
    <path
       style="fill:#d45500;fill-rule:evenodd;stroke:#000000;stroke-width:2;stroke-linecap:butt;stroke-linejoin:miter;stroke-miterlimit:4;stroke-dasharray:none;stroke-opacity:1"
       d="m 152.99483,174.91933 c -0.21945,5.54558 -3.90151,6.42223 -1.24723,10.11925 2.00855,2.79761 12.17872,-0.32216 16.09107,0.50934 1.97545,-0.81219 12.12823,2.05117 13.30234,0.12721 4.17771,-6.84582 -0.28421,-10.8248 -0.28421,-10.8248 l -6.83484,2.08135 -4.91305,1.64922 v 0 l -3.77977,-1.88988 -3.76245,-0.43912 -5.09541,-0.57651 z"
       id="path4658-7-2-2-0-2"
       inkscape:connector-curvature="0"
       sodipodi:nodetypes="cscscccccccc" />
    <ellipse
       style="fill:#ffb380;fill-opacity:1;stroke:#000000;stroke-width:2;stroke-miterlimit:4;stroke-dasharray:none"
       id="path4520-7-6-2-8"
       cx="166.50891"
       cy="160.4577"
       rx="18.842501"
       ry="20.045216" />
    <ellipse
       style="fill:#ffffff;fill-opacity:1;stroke:#000000;stroke-width:0.18831116;stroke-miterlimit:4;stroke-dasharray:none"
       id="path4546-0-1-3-9"
       cx="167.29575"
       cy="153.94055"
       rx="3.2741489"
       ry="3.4876797" />
    <ellipse
       style="fill:#008000;fill-opacity:1;stroke:#000000;stroke-width:0.1;stroke-miterlimit:4.4000001;stroke-dasharray:none"
       id="path4571-3-8-7-7"
       cx="167.48473"
       cy="153.87061"
       rx="1.2284226"
       ry="1.1339285" />
    <path
       style="fill:#ffffff;fill-rule:evenodd;stroke:#000000;stroke-width:1.5;stroke-linecap:butt;stroke-linejoin:miter;stroke-miterlimit:4;stroke-dasharray:none;stroke-dashoffset:0;stroke-opacity:1"
       d="m 157.74955,170.21299 9.2928,0.59471 7.79441,-0.35037"
       id="path4694-0-7-5-3"
       inkscape:connector-curvature="0"
       sodipodi:nodetypes="ccc" />
    <circle
       id="path5066-9-9-6"
       style="fill:#550000;stroke:none;stroke-width:1.12599206"
       cx="168.96355"
       cy="160.0545"
       r="1.6889881" />
    <circle
       id="path5068-2-2-1"
       style="fill:#550000;stroke:none;stroke-width:1"
       cx="165.16643"
       cy="160.2435"
       r="1.5" />
    <path
       style="fill:#d45500;fill-rule:evenodd;stroke:#000000;stroke-width:2;stroke-linecap:butt;stroke-linejoin:miter;stroke-miterlimit:4;stroke-dasharray:none;stroke-opacity:1"
       d="m 8.4085378,228.02728 c -0.21945,5.54559 -3.90151,6.42223 -1.24723,10.11925 2.00855,2.79761 15.6750012,-0.88911 19.5873512,-0.0576 1.97545,-0.81219 8.63195,2.61814 9.80606,0.69418 4.17771,-6.84583 -0.28421,-10.8248 -0.28421,-10.8248 l -6.834841,2.08135 -4.913049,1.64921 v 0 l -3.77977,-1.88988 -3.76245,-0.43912 -5.095411,-0.57651 z"
       id="path4658-7-2-2-0-2-2"
       inkscape:connector-curvature="0"
       sodipodi:nodetypes="cscscccccccc" />
    <ellipse
       style="fill:#ffb380;fill-opacity:1;stroke:#000000;stroke-width:2;stroke-miterlimit:4;stroke-dasharray:none"
       id="path4520-7-6-2-8-9"
       cx="21.922619"
       cy="213.56566"
       rx="18.842501"
       ry="20.045216" />
    <ellipse
       style="fill:#ffffff;fill-opacity:1;stroke:#000000;stroke-width:0.18831116;stroke-miterlimit:4;stroke-dasharray:none"
       id="path4546-0-1-3-9-3"
       cx="22.709454"
       cy="207.04851"
       rx="3.2741489"
       ry="3.4876797" />
    <ellipse
       style="fill:#008000;fill-opacity:1;stroke:#000000;stroke-width:0.1;stroke-miterlimit:4.4000001;stroke-dasharray:none"
       id="path4571-3-8-7-7-1"
       cx="21.695721"
       cy="206.17676"
       rx="1.2284226"
       ry="1.1339285" />
    <path
       style="fill:#ffffff;fill-rule:evenodd;stroke:#000000;stroke-width:1.5;stroke-linecap:butt;stroke-linejoin:miter;stroke-miterlimit:4;stroke-dasharray:none;stroke-dashoffset:0;stroke-opacity:1"
       d="m 13.163259,223.32094 12.411104,0.59471 4.676105,-0.35037"
       id="path4694-0-7-5-3-9"
       inkscape:connector-curvature="0"
       sodipodi:nodetypes="ccc" />
    <circle
       id="path5066-9-9-6-4"
       style="fill:#550000;stroke:none;stroke-width:1"
       cx="24.188267"
       cy="213.35146"
       r="1.5" />
    <circle
       id="path5068-2-2-1-7"
       style="fill:#550000;stroke:none;stroke-width:1"
       cx="20.580135"
       cy="213.35146"
       r="1.5" />
    <path
       style="fill:#d45500;fill-rule:evenodd;stroke:#000000;stroke-width:2;stroke-linecap:butt;stroke-linejoin:miter;stroke-miterlimit:4;stroke-dasharray:none;stroke-opacity:1"
       d="m 55.307822,228.39693 c -0.21945,5.54559 -3.90151,6.42223 -1.24723,10.11925 2.00855,2.79761 15.675001,-0.88911 19.587351,-0.0576 1.97545,-0.81219 8.631949,2.61814 9.806061,0.69418 4.17771,-6.84583 -0.28421,-10.8248 -0.28421,-10.8248 l -6.834841,2.08135 -4.91305,1.64921 v 0 l -3.77977,-1.88988 -3.76245,-0.43912 -5.095411,-0.57651 z"
       id="path4658-7-2-2-0-2-2-8"
       inkscape:connector-curvature="0"
       sodipodi:nodetypes="cscscccccccc" />
    <ellipse
       style="fill:#ffb380;fill-opacity:1;stroke:#000000;stroke-width:2;stroke-miterlimit:4;stroke-dasharray:none"
       id="path4520-7-6-2-8-9-4"
       cx="68.821899"
       cy="213.9353"
       rx="18.842501"
       ry="20.045216" />
    <ellipse
       style="fill:#ffffff;fill-opacity:1;stroke:#000000;stroke-width:0.18831116;stroke-miterlimit:4;stroke-dasharray:none"
       id="path4546-0-1-3-9-3-5"
       cx="69.608734"
       cy="207.41815"
       rx="3.2741489"
       ry="3.4876797" />
    <ellipse
       style="fill:#008000;fill-opacity:1;stroke:#000000;stroke-width:0.1;stroke-miterlimit:4.4000001;stroke-dasharray:none"
       id="path4571-3-8-7-7-1-0"
       cx="68.060463"
       cy="207.74911"
       rx="1.2284226"
       ry="1.1339285" />
    <circle
       id="path5066-9-9-6-4-6"
       style="fill:#550000;stroke:none;stroke-width:1.22272456"
       cx="71.421631"
       cy="213.38701"
       r="1.8340869" />
    <circle
       id="path5068-2-2-1-7-1"
       style="fill:#550000;stroke:none;stroke-width:1"
       cx="67.479416"
       cy="213.7211"
       r="1.5" />
    <path
       style="fill:#ffffff;fill-rule:evenodd;stroke:#000000;stroke-width:1.5;stroke-linecap:butt;stroke-linejoin:miter;stroke-miterlimit:4;stroke-dasharray:none;stroke-dashoffset:0;stroke-opacity:1"
       d="m 60.062543,223.69059 6.273145,0.88843 10.546798,-0.51046"
       id="path4694-0-6"
       inkscape:connector-curvature="0"
       sodipodi:nodetypes="ccc" />
    <path
       style="fill:#d45500;fill-rule:evenodd;stroke:#000000;stroke-width:2;stroke-linecap:butt;stroke-linejoin:miter;stroke-miterlimit:4;stroke-dasharray:none;stroke-opacity:1"
       d="m 99.540935,228.53057 c -0.21945,5.54559 -3.90151,6.42223 -1.24723,10.11925 2.008555,2.79761 15.675005,-0.88911 19.587355,-0.0576 1.97545,-0.81219 8.63195,2.61814 9.80606,0.69418 4.17771,-6.84583 -0.28421,-10.8248 -0.28421,-10.8248 l -6.83484,2.08135 -4.91305,1.64921 v 0 l -3.77977,-1.88988 -3.76245,-0.43912 -5.09541,-0.57651 z"
       id="path4658-7-2-2-0-2-2-8-3"
       inkscape:connector-curvature="0"
       sodipodi:nodetypes="cscscccccccc" />
    <ellipse
       style="fill:#ffb380;fill-opacity:1;stroke:#000000;stroke-width:2;stroke-miterlimit:4;stroke-dasharray:none"
       id="path4520-7-6-2-8-9-4-2"
       cx="113.05502"
       cy="214.06894"
       rx="18.842501"
       ry="20.045216" />
    <ellipse
       style="fill:#ffffff;fill-opacity:1;stroke:#000000;stroke-width:0.18831116;stroke-miterlimit:4;stroke-dasharray:none"
       id="path4546-0-1-3-9-3-5-0"
       cx="113.84185"
       cy="207.55179"
       rx="3.2741489"
       ry="3.4876797" />
    <ellipse
       style="fill:#008000;fill-opacity:1;stroke:#000000;stroke-width:0.1;stroke-miterlimit:4.4000001;stroke-dasharray:none"
       id="path4571-3-8-7-7-1-0-6"
       cx="113.89719"
       cy="208.55092"
       rx="1.2284226"
       ry="1.1339285" />
    <ellipse
       id="path5066-9-9-6-4-6-1"
       style="fill:#550000;stroke:none;stroke-width:1.17733729"
       cx="115.52111"
       cy="213.52065"
       rx="1.7004521"
       ry="1.8340869" />
    <circle
       id="path5068-2-2-1-7-1-5"
       style="fill:#550000;stroke:none;stroke-width:1"
       cx="111.71253"
       cy="213.85474"
       r="1.5" />
    <path
       style="fill:#ffffff;fill-rule:evenodd;stroke:#000000;stroke-width:1.5;stroke-linecap:butt;stroke-linejoin:miter;stroke-miterlimit:4;stroke-dasharray:none;stroke-dashoffset:0;stroke-opacity:1"
       d="m 104.29566,223.82423 16.81994,0.37797"
       id="path4694-0-6-5"
       inkscape:connector-curvature="0" />
    <path
       style="fill:#d45500;fill-rule:evenodd;stroke:#000000;stroke-width:2;stroke-linecap:butt;stroke-linejoin:miter;stroke-miterlimit:4;stroke-dasharray:none;stroke-opacity:1"
       d="m 151.79213,230.53508 c -0.21945,5.54559 -3.90151,6.42223 -1.24723,10.11925 2.00855,2.79761 15.675,-0.88911 19.58735,-0.0576 1.97545,-0.81219 8.63194,2.61814 9.80606,0.69418 4.17771,-6.84583 -0.28421,-10.8248 -0.28421,-10.8248 l -6.83484,2.08135 -4.91305,1.64921 v 0 l -3.77977,-1.88988 -3.76245,-0.43912 -5.09541,-0.57651 z"
       id="path4658-7-2-2-0-2-2-8-4"
       inkscape:connector-curvature="0"
       sodipodi:nodetypes="cscscccccccc" />
    <ellipse
       style="fill:#ffb380;fill-opacity:1;stroke:#000000;stroke-width:2;stroke-miterlimit:4;stroke-dasharray:none"
       id="path4520-7-6-2-8-9-4-7"
       cx="165.3062"
       cy="216.07346"
       rx="18.842501"
       ry="20.045216" />
    <ellipse
       style="fill:#ffffff;fill-opacity:1;stroke:#000000;stroke-width:0.18831116;stroke-miterlimit:4;stroke-dasharray:none"
       id="path4546-0-1-3-9-3-5-6"
       cx="166.09303"
       cy="209.5563"
       rx="3.2741489"
       ry="3.4876797" />
    <ellipse
       style="fill:#008000;fill-opacity:1;stroke:#000000;stroke-width:0.1;stroke-miterlimit:4.4000001;stroke-dasharray:none"
       id="path4571-3-8-7-7-1-0-5"
       cx="166.88338"
       cy="209.75363"
       rx="1.2284226"
       ry="1.1339285" />
    <circle
       id="path5066-9-9-6-4-6-6"
       style="fill:#550000;stroke:none;stroke-width:0.97772747"
       cx="167.53844"
       cy="215.89265"
       r="1.4665912" />
    <circle
       id="path5068-2-2-1-7-1-9"
       style="fill:#550000;stroke:none;stroke-width:1"
       cx="163.96371"
       cy="215.85925"
       r="1.5" />
    <path
       style="fill:#ffffff;fill-rule:evenodd;stroke:#000000;stroke-width:1.5;stroke-linecap:butt;stroke-linejoin:miter;stroke-miterlimit:4;stroke-dasharray:none;stroke-dashoffset:0;stroke-opacity:1"
       d="m 156.54685,225.82874 16.81994,0.37797"
       id="path4694-0-6-3"
       inkscape:connector-curvature="0" />
  </g>
</svg>
