<?xml version="1.0" encoding="UTF-8" standalone="no"?>
<!-- Created with Inkscape (http://www.inkscape.org/) -->

<svg
   xmlns:dc="http://purl.org/dc/elements/1.1/"
   xmlns:cc="http://creativecommons.org/ns#"
   xmlns:rdf="http://www.w3.org/1999/02/22-rdf-syntax-ns#"
   xmlns:svg="http://www.w3.org/2000/svg"
   xmlns="http://www.w3.org/2000/svg"
   xmlns:sodipodi="http://sodipodi.sourceforge.net/DTD/sodipodi-0.dtd"
   xmlns:inkscape="http://www.inkscape.org/namespaces/inkscape"
   width="297mm"
   height="210mm"
   viewBox="0 0 297 210"
   version="1.1"
   id="svg5511"
   inkscape:version="0.92.4 (unknown)"
   sodipodi:docname="Anmhithe02.svg"
   inkscape:export-filename="/home/fachtna/00-2019/00-RID/JavaScript/anmhithe02-positioned.png"
   inkscape:export-xdpi="300.03"
   inkscape:export-ydpi="300.03">
  <defs
     id="defs5505" />
  <sodipodi:namedview
     id="base"
     pagecolor="#ffffff"
     bordercolor="#666666"
     borderopacity="1.0"
     inkscape:pageopacity="0.0"
     inkscape:pageshadow="2"
     inkscape:zoom="0.7"
     inkscape:cx="609.87201"
     inkscape:cy="924.06527"
     inkscape:document-units="mm"
     inkscape:current-layer="layer1"
     showgrid="false"
     inkscape:window-width="1280"
     inkscape:window-height="970"
     inkscape:window-x="1680"
     inkscape:window-y="36"
     inkscape:window-maximized="1" />
  <metadata
     id="metadata5508">
    <rdf:RDF>
      <cc:Work
         rdf:about="">
        <dc:format>image/svg+xml</dc:format>
        <dc:type
           rdf:resource="http://purl.org/dc/dcmitype/StillImage" />
        <dc:title></dc:title>
      </cc:Work>
    </rdf:RDF>
  </metadata>
  <g
     inkscape:label="Layer 1"
     inkscape:groupmode="layer"
     id="layer1"
     transform="translate(0,-87)">
    <path
       style="fill:#d45500;fill-rule:evenodd;stroke:#000000;stroke-width:1.11375678;stroke-linecap:butt;stroke-linejoin:miter;stroke-miterlimit:4;stroke-dasharray:none;stroke-opacity:1"
       d="m 30.000208,131.18715 c -0.122941,3.06989 -1.736462,3.70313 -0.249526,5.7497 1.125195,1.54869 5.47502,-0.32629 7.666729,0.13403 1.106656,-0.44961 5.938003,1.22601 6.853106,0.36633 3.088992,-2.90196 0.589415,-5.54847 0.589415,-5.54847 l -3.080272,0.41242 -2.752305,0.91296 v 0 l -2.117433,-1.04619 -2.107739,-0.24309 -2.854458,-0.31914 z"
       id="path4658-7-2"
       inkscape:connector-curvature="0"
       sodipodi:nodetypes="cscscccccccc" />
    <ellipse
       style="fill:#ffb380;fill-opacity:1;stroke:#000000;stroke-width:1.11375678;stroke-miterlimit:4;stroke-dasharray:none"
       id="path4520-7"
       cx="37.570831"
       cy="123.18159"
       rx="10.555621"
       ry="11.096505" />
    <ellipse
       style="fill:#ffffff;fill-opacity:1;stroke:#000000;stroke-width:0.10486642;stroke-miterlimit:4;stroke-dasharray:none"
       id="path4546-0"
       cx="38.011616"
       cy="119.57384"
       rx="1.8341872"
       ry="1.9306881" />
    <ellipse
       style="fill:#008000;fill-opacity:1;stroke:#000000;stroke-width:0.05568784;stroke-miterlimit:4.4000001;stroke-dasharray:none"
       id="path4571-3"
       cx="38.117489"
       cy="119.53513"
       rx="0.68816572"
       ry="0.62771308" />
    <path
       style="fill:#ffffff;fill-rule:evenodd;stroke:#000000;stroke-width:0.83531755;stroke-linecap:butt;stroke-linejoin:miter;stroke-miterlimit:4;stroke-dasharray:none;stroke-dashoffset:0;stroke-opacity:1"
       d="m 32.663811,128.58184 9.422576,0.20924"
       id="path4694-0"
       inkscape:connector-curvature="0" />
    <ellipse
       id="path5066"
       style="fill:#550000;stroke:none;stroke-width:0.55687839"
       cx="38.84005"
       cy="123.063"
       rx="0.84030408"
       ry="0.83036065" />
    <ellipse
       id="path5068"
       style="fill:#550000;stroke:none;stroke-width:0.55687839"
       cx="36.81876"
       cy="123.063"
       rx="0.84030408"
       ry="0.83036065" />
    <path
       style="fill:#d45500;fill-rule:evenodd;stroke:#000000;stroke-width:1.11375678;stroke-linecap:butt;stroke-linejoin:miter;stroke-miterlimit:4;stroke-dasharray:none;stroke-opacity:1"
       d="m 52.489785,131.18716 c -0.122943,3.06989 -1.736463,3.70313 -0.249527,5.7497 1.125196,1.54869 5.475018,-0.32629 7.666728,0.13403 1.106658,-0.44961 5.938003,1.22601 6.853106,0.36632 3.088997,-2.90195 0.589417,-5.54846 0.589417,-5.54846 l -3.080275,0.41241 -2.752304,0.91297 v 0 l -2.117431,-1.04619 -2.107741,-0.24309 -2.854457,-0.31914 z"
       id="path4658-7-2-2"
       inkscape:connector-curvature="0"
       sodipodi:nodetypes="cscscccccccc" />
    <ellipse
       style="fill:#ffb380;fill-opacity:1;stroke:#000000;stroke-width:1.11375678;stroke-miterlimit:4;stroke-dasharray:none"
       id="path4520-7-6"
       cx="60.060417"
       cy="123.1816"
       rx="10.555621"
       ry="11.096505" />
    <ellipse
       style="fill:#ffffff;fill-opacity:1;stroke:#000000;stroke-width:0.10486642;stroke-miterlimit:4;stroke-dasharray:none"
       id="path4546-0-1"
       cx="60.50119"
       cy="119.57385"
       rx="1.8341872"
       ry="1.9306881" />
    <ellipse
       style="fill:#008000;fill-opacity:1;stroke:#000000;stroke-width:0.05568784;stroke-miterlimit:4.4000001;stroke-dasharray:none"
       id="path4571-3-8"
       cx="60.981384"
       cy="119.09128"
       rx="0.68816572"
       ry="0.62771308" />
    <path
       style="fill:#ffffff;fill-rule:evenodd;stroke:#000000;stroke-width:0.83531755;stroke-linecap:butt;stroke-linejoin:miter;stroke-miterlimit:4;stroke-dasharray:none;stroke-dashoffset:0;stroke-opacity:1"
       d="m 55.153385,128.58185 5.205859,0.32922 4.366444,-0.19395"
       id="path4694-0-7"
       inkscape:connector-curvature="0"
       sodipodi:nodetypes="ccc" />
    <ellipse
       id="path5066-9"
       style="fill:#550000;stroke:none;stroke-width:0.55687839"
       cx="61.329628"
       cy="123.06303"
       rx="0.84030408"
       ry="0.83036065" />
    <ellipse
       id="path5068-2"
       style="fill:#550000;stroke:none;stroke-width:0.55687839"
       cx="59.308342"
       cy="123.06303"
       rx="0.84030408"
       ry="0.83036065" />
    <path
       style="fill:#d45500;fill-rule:evenodd;stroke:#000000;stroke-width:1.11375952;stroke-linecap:butt;stroke-linejoin:miter;stroke-miterlimit:4;stroke-dasharray:none;stroke-opacity:1"
       d="m 74.979356,130.89718 c -0.122937,3.06991 -2.934258,3.85111 -1.447323,5.89769 1.12519,1.5487 6.672821,-0.47424 8.864529,-0.014 1.106653,-0.44961 6.686635,1.66988 7.601735,0.81019 3.08899,-2.90197 -0.15921,-5.99236 -0.15921,-5.99236 l -3.08028,0.41242 -2.7523,0.91297 v 0 l -2.117438,-1.0462 -2.107735,-0.24309 -2.854461,-0.31914 z"
       id="path4658-7-2-2-0"
       inkscape:connector-curvature="0"
       sodipodi:nodetypes="cscscccccccc" />
    <ellipse
       style="fill:#ffb380;fill-opacity:1;stroke:#000000;stroke-width:1.11375952;stroke-miterlimit:4;stroke-dasharray:none"
       id="path4520-7-6-2"
       cx="82.550003"
       cy="123.18158"
       rx="10.55562"
       ry="11.096561" />
    <ellipse
       style="fill:#ffffff;fill-opacity:1;stroke:#000000;stroke-width:0.10486668;stroke-miterlimit:4;stroke-dasharray:none"
       id="path4546-0-1-3"
       cx="82.990784"
       cy="119.28382"
       rx="1.8341869"
       ry="1.9306979" />
    <ellipse
       style="fill:#008000;fill-opacity:1;stroke:#000000;stroke-width:0.05568798;stroke-miterlimit:4.4000001;stroke-dasharray:none"
       id="path4571-3-8-7"
       cx="82.797203"
       cy="118.72726"
       rx="0.68816566"
       ry="0.6277163" />
    <path
       style="fill:#ffffff;fill-rule:evenodd;stroke:#000000;stroke-width:0.83531964;stroke-linecap:butt;stroke-linejoin:miter;stroke-miterlimit:4;stroke-dasharray:none;stroke-dashoffset:0;stroke-opacity:1"
       d="m 77.642963,128.29187 5.205852,0.32922 4.366442,-0.19397"
       id="path4694-0-7-5"
       inkscape:connector-curvature="0"
       sodipodi:nodetypes="ccc" />
    <ellipse
       id="path5066-9-9"
       style="fill:#550000;stroke:none;stroke-width:0.55687976"
       cx="83.819214"
       cy="122.77298"
       rx="0.84030396"
       ry="0.83036488" />
    <ellipse
       id="path5068-2-2"
       style="fill:#550000;stroke:none;stroke-width:0.63575202"
       cx="81.665588"
       cy="122.66835"
       rx="0.97264355"
       ry="0.93498427" />
    <path
       style="fill:#d45500;fill-rule:evenodd;stroke:#000000;stroke-width:1.11375666;stroke-linecap:butt;stroke-linejoin:miter;stroke-miterlimit:4;stroke-dasharray:none;stroke-opacity:1"
       d="m 97.468945,131.36335 c -0.12293,3.06988 -2.18563,3.55517 -0.69869,5.60174 1.12519,1.54869 6.822535,-0.17833 9.014255,0.28196 1.10665,-0.4496 6.79427,1.13548 7.45201,0.0704 2.34035,-3.78967 -0.15922,-5.99233 -0.15922,-5.99233 l -3.82889,1.15218 -2.75232,0.91296 v 0 l -2.11743,-1.04618 -2.10773,-0.24308 -2.854465,-0.31915 z"
       id="path4658-7-2-2-0-2"
       inkscape:connector-curvature="0"
       sodipodi:nodetypes="cscscccccccc" />
    <ellipse
       style="fill:#ffb380;fill-opacity:1;stroke:#000000;stroke-width:1.11375666;stroke-miterlimit:4;stroke-dasharray:none"
       id="path4520-7-6-2-8"
       cx="105.03958"
       cy="123.18164"
       rx="10.555622"
       ry="11.096503" />
    <ellipse
       style="fill:#ffffff;fill-opacity:1;stroke:#000000;stroke-width:0.10486641;stroke-miterlimit:4;stroke-dasharray:none"
       id="path4546-0-1-3-9"
       cx="105.48037"
       cy="119.75004"
       rx="1.8341872"
       ry="1.9306877" />
    <ellipse
       style="fill:#008000;fill-opacity:1;stroke:#000000;stroke-width:0.05568784;stroke-miterlimit:4.4000001;stroke-dasharray:none"
       id="path4571-3-8-7-7"
       cx="105.58624"
       cy="119.71132"
       rx="0.68816572"
       ry="0.62771297" />
    <path
       style="fill:#ffffff;fill-rule:evenodd;stroke:#000000;stroke-width:0.83531749;stroke-linecap:butt;stroke-linejoin:miter;stroke-miterlimit:4;stroke-dasharray:none;stroke-dashoffset:0;stroke-opacity:1"
       d="m 100.13256,128.75804 5.20585,0.32922 4.36644,-0.19397"
       id="path4694-0-7-5-3"
       inkscape:connector-curvature="0"
       sodipodi:nodetypes="ccc" />
    <ellipse
       id="path5066-9-9-6"
       style="fill:#550000;stroke:none;stroke-width:0.62704062"
       cx="106.41468"
       cy="123.13457"
       rx="0.94617575"
       ry="0.93497932" />
    <ellipse
       id="path5068-2-2-1"
       style="fill:#550000;stroke:none;stroke-width:0.55687833"
       cx="104.28752"
       cy="123.23918"
       rx="0.84030408"
       ry="0.83036047" />
    <path
       style="fill:#d45500;fill-rule:evenodd;stroke:#000000;stroke-width:1.11375642;stroke-linecap:butt;stroke-linejoin:miter;stroke-miterlimit:4;stroke-dasharray:none;stroke-opacity:1"
       d="m 119.95856,131.40937 c -0.12294,3.06989 -2.18564,3.55518 -0.6987,5.60175 1.1252,1.54868 8.78118,-0.49219 10.97289,-0.0319 1.10666,-0.44961 4.83564,1.44933 5.49339,0.38427 2.34036,-3.78966 -0.15922,-5.99232 -0.15922,-5.99232 l -3.82889,1.15218 -2.75232,0.91296 v 0 l -2.11743,-1.0462 -2.10773,-0.24307 -2.85447,-0.31915 z"
       id="path4658-7-2-2-0-2-2"
       inkscape:connector-curvature="0"
       sodipodi:nodetypes="cscscccccccc" />
    <ellipse
       style="fill:#ffb380;fill-opacity:1;stroke:#000000;stroke-width:1.11375642;stroke-miterlimit:4;stroke-dasharray:none"
       id="path4520-7-6-2-8-9"
       cx="127.52917"
       cy="123.18165"
       rx="10.555622"
       ry="11.096498" />
    <ellipse
       style="fill:#ffffff;fill-opacity:1;stroke:#000000;stroke-width:0.10486638;stroke-miterlimit:4;stroke-dasharray:none"
       id="path4546-0-1-3-9-3"
       cx="127.96996"
       cy="119.79604"
       rx="1.8341872"
       ry="1.9306867" />
    <ellipse
       style="fill:#008000;fill-opacity:1;stroke:#000000;stroke-width:0.05568783;stroke-miterlimit:4.4000001;stroke-dasharray:none"
       id="path4571-3-8-7-7-1"
       cx="127.40206"
       cy="119.31349"
       rx="0.68816572"
       ry="0.62771267" />
    <path
       style="fill:#ffffff;fill-rule:evenodd;stroke:#000000;stroke-width:0.83531731;stroke-linecap:butt;stroke-linejoin:miter;stroke-miterlimit:4;stroke-dasharray:none;stroke-dashoffset:0;stroke-opacity:1"
       d="m 122.62217,128.80406 6.95273,0.32923 2.61956,-0.19396"
       id="path4694-0-7-5-3-9"
       inkscape:connector-curvature="0"
       sodipodi:nodetypes="ccc" />
    <ellipse
       id="path5066-9-9-6-4"
       style="fill:#550000;stroke:none;stroke-width:0.55687821"
       cx="128.79839"
       cy="123.28522"
       rx="0.84030408"
       ry="0.83036005" />
    <ellipse
       id="path5068-2-2-1-7"
       style="fill:#550000;stroke:none;stroke-width:0.55687821"
       cx="126.77712"
       cy="123.28522"
       rx="0.84030408"
       ry="0.83036005" />
    <path
       style="fill:#d45500;fill-rule:evenodd;stroke:#000000;stroke-width:1.11375642;stroke-linecap:butt;stroke-linejoin:miter;stroke-miterlimit:4;stroke-dasharray:none;stroke-opacity:1"
       d="m 142.44812,131.40937 c -0.12293,3.06989 -2.18563,3.55516 -0.69869,5.60174 1.1252,1.54868 8.78118,-0.49219 10.97288,-0.0319 1.10666,-0.4496 4.83565,1.44934 5.49339,0.38428 2.34037,-3.78966 -0.15922,-5.99232 -0.15922,-5.99232 l -3.82889,1.15218 -2.75231,0.91296 v 0 l -2.11744,-1.04619 -2.10773,-0.24307 -2.85447,-0.31916 z"
       id="path4658-7-2-2-0-2-2-8"
       inkscape:connector-curvature="0"
       sodipodi:nodetypes="cscscccccccc" />
    <ellipse
       style="fill:#ffb380;fill-opacity:1;stroke:#000000;stroke-width:1.11375642;stroke-miterlimit:4;stroke-dasharray:none"
       id="path4520-7-6-2-8-9-4"
       cx="150.01875"
       cy="123.18165"
       rx="10.555622"
       ry="11.096498" />
    <ellipse
       style="fill:#ffffff;fill-opacity:1;stroke:#000000;stroke-width:0.10486638;stroke-miterlimit:4;stroke-dasharray:none"
       id="path4546-0-1-3-9-3-5"
       cx="150.45953"
       cy="119.79606"
       rx="1.8341872"
       ry="1.9306867" />
    <ellipse
       style="fill:#008000;fill-opacity:1;stroke:#000000;stroke-width:0.05568783;stroke-miterlimit:4.4000001;stroke-dasharray:none"
       id="path4571-3-8-7-7-1-0"
       cx="149.59218"
       cy="119.97926"
       rx="0.68816572"
       ry="0.62771267" />
    <ellipse
       id="path5066-9-9-6-4-6"
       style="fill:#550000;stroke:none;stroke-width:0.68090868"
       cx="151.47513"
       cy="123.10027"
       rx="1.0274606"
       ry="1.0153017" />
    <ellipse
       id="path5068-2-2-1-7-1"
       style="fill:#550000;stroke:none;stroke-width:0.55687821"
       cx="149.26668"
       cy="123.28522"
       rx="0.84030408"
       ry="0.83036005" />
    <path
       style="fill:#ffffff;fill-rule:evenodd;stroke:#000000;stroke-width:0.83531731;stroke-linecap:butt;stroke-linejoin:miter;stroke-miterlimit:4;stroke-dasharray:none;stroke-dashoffset:0;stroke-opacity:1"
       d="m 145.11174,128.80406 3.51423,0.49181 5.90835,-0.28258"
       id="path4694-0-6"
       inkscape:connector-curvature="0"
       sodipodi:nodetypes="ccc" />
    <path
       style="fill:#d45500;fill-rule:evenodd;stroke:#000000;stroke-width:1.11375642;stroke-linecap:butt;stroke-linejoin:miter;stroke-miterlimit:4;stroke-dasharray:none;stroke-opacity:1"
       d="m 164.93771,131.40938 c -0.12293,3.06989 -2.18563,3.55518 -0.69869,5.60175 1.1252,1.54868 8.78118,-0.49219 10.97288,-0.0319 1.10666,-0.44962 4.83565,1.44933 5.49339,0.38427 2.34036,-3.78967 -0.15922,-5.99232 -0.15922,-5.99232 l -3.82889,1.15218 -2.75231,0.91296 v 0 l -2.11744,-1.04619 -2.10773,-0.24308 -2.85447,-0.31914 z"
       id="path4658-7-2-2-0-2-2-8-3"
       inkscape:connector-curvature="0"
       sodipodi:nodetypes="cscscccccccc" />
    <ellipse
       style="fill:#ffb380;fill-opacity:1;stroke:#000000;stroke-width:1.11375642;stroke-miterlimit:4;stroke-dasharray:none"
       id="path4520-7-6-2-8-9-4-2"
       cx="172.50833"
       cy="123.18165"
       rx="10.555622"
       ry="11.096498" />
    <ellipse
       style="fill:#ffffff;fill-opacity:1;stroke:#000000;stroke-width:0.10486638;stroke-miterlimit:4;stroke-dasharray:none"
       id="path4546-0-1-3-9-3-5-0"
       cx="172.94911"
       cy="119.79606"
       rx="1.8341872"
       ry="1.9306867" />
    <ellipse
       style="fill:#008000;fill-opacity:1;stroke:#000000;stroke-width:0.05568783;stroke-miterlimit:4.4000001;stroke-dasharray:none"
       id="path4571-3-8-7-7-1-0-6"
       cx="172.98012"
       cy="120.34915"
       rx="0.68816572"
       ry="0.62771267" />
    <ellipse
       id="path5066-9-9-6-4-6-1"
       style="fill:#550000;stroke:none;stroke-width:0.65563345"
       cx="173.88983"
       cy="123.10028"
       rx="0.95259792"
       ry="1.0153017" />
    <ellipse
       id="path5068-2-2-1-7-1-5"
       style="fill:#550000;stroke:none;stroke-width:0.55687821"
       cx="171.75626"
       cy="123.28524"
       rx="0.84030408"
       ry="0.83036005" />
    <path
       style="fill:#ffffff;fill-rule:evenodd;stroke:#000000;stroke-width:0.83531731;stroke-linecap:butt;stroke-linejoin:miter;stroke-miterlimit:4;stroke-dasharray:none;stroke-dashoffset:0;stroke-opacity:1"
       d="m 167.60133,128.80407 9.42257,0.20924"
       id="path4694-0-6-5"
       inkscape:connector-curvature="0" />
    <path
       style="fill:#d45500;fill-rule:evenodd;stroke:#000000;stroke-width:1.11375642;stroke-linecap:butt;stroke-linejoin:miter;stroke-miterlimit:4;stroke-dasharray:none;stroke-opacity:1"
       d="m 187.4273,131.40938 c -0.12293,3.06989 -2.18563,3.55517 -0.6987,5.60175 1.1252,1.54868 8.78118,-0.49219 10.97289,-0.0319 1.10666,-0.44962 4.83564,1.44933 5.49339,0.38427 2.34037,-3.78966 -0.15922,-5.99232 -0.15922,-5.99232 l -3.82889,1.15218 -2.75232,0.91296 v 0 l -2.11743,-1.04619 -2.10773,-0.24308 -2.85447,-0.31915 z"
       id="path4658-7-2-2-0-2-2-8-4"
       inkscape:connector-curvature="0"
       sodipodi:nodetypes="cscscccccccc" />
    <ellipse
       style="fill:#ffb380;fill-opacity:1;stroke:#000000;stroke-width:1.11375642;stroke-miterlimit:4;stroke-dasharray:none"
       id="path4520-7-6-2-8-9-4-7"
       cx="194.99791"
       cy="123.18165"
       rx="10.555622"
       ry="11.096498"
       inkscape:export-xdpi="300.03"
       inkscape:export-ydpi="300.03" />
    <ellipse
       style="fill:#ffffff;fill-opacity:1;stroke:#000000;stroke-width:0.10486638;stroke-miterlimit:4;stroke-dasharray:none"
       id="path4546-0-1-3-9-3-5-6"
       cx="195.43871"
       cy="119.79609"
       rx="1.8341872"
       ry="1.9306867" />
    <ellipse
       style="fill:#008000;fill-opacity:1;stroke:#000000;stroke-width:0.05568783;stroke-miterlimit:4.4000001;stroke-dasharray:none"
       id="path4571-3-8-7-7-1-0-5"
       cx="195.88145"
       cy="119.90533"
       rx="0.68816572"
       ry="0.62771267" />
    <ellipse
       id="path5066-9-9-6-4-6-6"
       style="fill:#550000;stroke:none;stroke-width:0.54447508"
       cx="196.24843"
       cy="123.30373"
       rx="0.82158846"
       ry="0.81186593" />
    <ellipse
       id="path5068-2-2-1-7-1-9"
       style="fill:#550000;stroke:none;stroke-width:0.55687821"
       cx="194.24585"
       cy="123.28524"
       rx="0.84030408"
       ry="0.83036005" />
    <path
       style="fill:#ffffff;fill-rule:evenodd;stroke:#000000;stroke-width:0.83531731;stroke-linecap:butt;stroke-linejoin:miter;stroke-miterlimit:4;stroke-dasharray:none;stroke-dashoffset:0;stroke-opacity:1"
       d="m 190.09091,128.80407 9.42258,0.20924"
       id="path4694-0-6-3"
       inkscape:connector-curvature="0" />
  </g>
</svg>
